%TF.GenerationSoftware,KiCad,Pcbnew,9.0.6*%
%TF.CreationDate,2025-11-23T21:02:07-05:00*%
%TF.ProjectId,ledcha,6c656463-6861-42e6-9b69-6361645f7063,rev?*%
%TF.SameCoordinates,Original*%
%TF.FileFunction,Legend,Top*%
%TF.FilePolarity,Positive*%
%FSLAX46Y46*%
G04 Gerber Fmt 4.6, Leading zero omitted, Abs format (unit mm)*
G04 Created by KiCad (PCBNEW 9.0.6) date 2025-11-23 21:02:07*
%MOMM*%
%LPD*%
G01*
G04 APERTURE LIST*
%ADD10C,0.150000*%
%ADD11C,0.120000*%
G04 APERTURE END LIST*
D10*
X191285833Y-112362319D02*
X190952500Y-111886128D01*
X190714405Y-112362319D02*
X190714405Y-111362319D01*
X190714405Y-111362319D02*
X191095357Y-111362319D01*
X191095357Y-111362319D02*
X191190595Y-111409938D01*
X191190595Y-111409938D02*
X191238214Y-111457557D01*
X191238214Y-111457557D02*
X191285833Y-111552795D01*
X191285833Y-111552795D02*
X191285833Y-111695652D01*
X191285833Y-111695652D02*
X191238214Y-111790890D01*
X191238214Y-111790890D02*
X191190595Y-111838509D01*
X191190595Y-111838509D02*
X191095357Y-111886128D01*
X191095357Y-111886128D02*
X190714405Y-111886128D01*
X192142976Y-111362319D02*
X191952500Y-111362319D01*
X191952500Y-111362319D02*
X191857262Y-111409938D01*
X191857262Y-111409938D02*
X191809643Y-111457557D01*
X191809643Y-111457557D02*
X191714405Y-111600414D01*
X191714405Y-111600414D02*
X191666786Y-111790890D01*
X191666786Y-111790890D02*
X191666786Y-112171842D01*
X191666786Y-112171842D02*
X191714405Y-112267080D01*
X191714405Y-112267080D02*
X191762024Y-112314700D01*
X191762024Y-112314700D02*
X191857262Y-112362319D01*
X191857262Y-112362319D02*
X192047738Y-112362319D01*
X192047738Y-112362319D02*
X192142976Y-112314700D01*
X192142976Y-112314700D02*
X192190595Y-112267080D01*
X192190595Y-112267080D02*
X192238214Y-112171842D01*
X192238214Y-112171842D02*
X192238214Y-111933747D01*
X192238214Y-111933747D02*
X192190595Y-111838509D01*
X192190595Y-111838509D02*
X192142976Y-111790890D01*
X192142976Y-111790890D02*
X192047738Y-111743271D01*
X192047738Y-111743271D02*
X191857262Y-111743271D01*
X191857262Y-111743271D02*
X191762024Y-111790890D01*
X191762024Y-111790890D02*
X191714405Y-111838509D01*
X191714405Y-111838509D02*
X191666786Y-111933747D01*
X174363155Y-115557319D02*
X174363155Y-114557319D01*
X174363155Y-114557319D02*
X174601250Y-114557319D01*
X174601250Y-114557319D02*
X174744107Y-114604938D01*
X174744107Y-114604938D02*
X174839345Y-114700176D01*
X174839345Y-114700176D02*
X174886964Y-114795414D01*
X174886964Y-114795414D02*
X174934583Y-114985890D01*
X174934583Y-114985890D02*
X174934583Y-115128747D01*
X174934583Y-115128747D02*
X174886964Y-115319223D01*
X174886964Y-115319223D02*
X174839345Y-115414461D01*
X174839345Y-115414461D02*
X174744107Y-115509700D01*
X174744107Y-115509700D02*
X174601250Y-115557319D01*
X174601250Y-115557319D02*
X174363155Y-115557319D01*
X175839345Y-114557319D02*
X175363155Y-114557319D01*
X175363155Y-114557319D02*
X175315536Y-115033509D01*
X175315536Y-115033509D02*
X175363155Y-114985890D01*
X175363155Y-114985890D02*
X175458393Y-114938271D01*
X175458393Y-114938271D02*
X175696488Y-114938271D01*
X175696488Y-114938271D02*
X175791726Y-114985890D01*
X175791726Y-114985890D02*
X175839345Y-115033509D01*
X175839345Y-115033509D02*
X175886964Y-115128747D01*
X175886964Y-115128747D02*
X175886964Y-115366842D01*
X175886964Y-115366842D02*
X175839345Y-115462080D01*
X175839345Y-115462080D02*
X175791726Y-115509700D01*
X175791726Y-115509700D02*
X175696488Y-115557319D01*
X175696488Y-115557319D02*
X175458393Y-115557319D01*
X175458393Y-115557319D02*
X175363155Y-115509700D01*
X175363155Y-115509700D02*
X175315536Y-115462080D01*
X200810833Y-95693569D02*
X200477500Y-95217378D01*
X200239405Y-95693569D02*
X200239405Y-94693569D01*
X200239405Y-94693569D02*
X200620357Y-94693569D01*
X200620357Y-94693569D02*
X200715595Y-94741188D01*
X200715595Y-94741188D02*
X200763214Y-94788807D01*
X200763214Y-94788807D02*
X200810833Y-94884045D01*
X200810833Y-94884045D02*
X200810833Y-95026902D01*
X200810833Y-95026902D02*
X200763214Y-95122140D01*
X200763214Y-95122140D02*
X200715595Y-95169759D01*
X200715595Y-95169759D02*
X200620357Y-95217378D01*
X200620357Y-95217378D02*
X200239405Y-95217378D01*
X201715595Y-94693569D02*
X201239405Y-94693569D01*
X201239405Y-94693569D02*
X201191786Y-95169759D01*
X201191786Y-95169759D02*
X201239405Y-95122140D01*
X201239405Y-95122140D02*
X201334643Y-95074521D01*
X201334643Y-95074521D02*
X201572738Y-95074521D01*
X201572738Y-95074521D02*
X201667976Y-95122140D01*
X201667976Y-95122140D02*
X201715595Y-95169759D01*
X201715595Y-95169759D02*
X201763214Y-95264997D01*
X201763214Y-95264997D02*
X201763214Y-95503092D01*
X201763214Y-95503092D02*
X201715595Y-95598330D01*
X201715595Y-95598330D02*
X201667976Y-95645950D01*
X201667976Y-95645950D02*
X201572738Y-95693569D01*
X201572738Y-95693569D02*
X201334643Y-95693569D01*
X201334643Y-95693569D02*
X201239405Y-95645950D01*
X201239405Y-95645950D02*
X201191786Y-95598330D01*
X155154405Y-115557319D02*
X155154405Y-114557319D01*
X155154405Y-114557319D02*
X155392500Y-114557319D01*
X155392500Y-114557319D02*
X155535357Y-114604938D01*
X155535357Y-114604938D02*
X155630595Y-114700176D01*
X155630595Y-114700176D02*
X155678214Y-114795414D01*
X155678214Y-114795414D02*
X155725833Y-114985890D01*
X155725833Y-114985890D02*
X155725833Y-115128747D01*
X155725833Y-115128747D02*
X155678214Y-115319223D01*
X155678214Y-115319223D02*
X155630595Y-115414461D01*
X155630595Y-115414461D02*
X155535357Y-115509700D01*
X155535357Y-115509700D02*
X155392500Y-115557319D01*
X155392500Y-115557319D02*
X155154405Y-115557319D01*
X156582976Y-114557319D02*
X156392500Y-114557319D01*
X156392500Y-114557319D02*
X156297262Y-114604938D01*
X156297262Y-114604938D02*
X156249643Y-114652557D01*
X156249643Y-114652557D02*
X156154405Y-114795414D01*
X156154405Y-114795414D02*
X156106786Y-114985890D01*
X156106786Y-114985890D02*
X156106786Y-115366842D01*
X156106786Y-115366842D02*
X156154405Y-115462080D01*
X156154405Y-115462080D02*
X156202024Y-115509700D01*
X156202024Y-115509700D02*
X156297262Y-115557319D01*
X156297262Y-115557319D02*
X156487738Y-115557319D01*
X156487738Y-115557319D02*
X156582976Y-115509700D01*
X156582976Y-115509700D02*
X156630595Y-115462080D01*
X156630595Y-115462080D02*
X156678214Y-115366842D01*
X156678214Y-115366842D02*
X156678214Y-115128747D01*
X156678214Y-115128747D02*
X156630595Y-115033509D01*
X156630595Y-115033509D02*
X156582976Y-114985890D01*
X156582976Y-114985890D02*
X156487738Y-114938271D01*
X156487738Y-114938271D02*
X156297262Y-114938271D01*
X156297262Y-114938271D02*
X156202024Y-114985890D01*
X156202024Y-114985890D02*
X156154405Y-115033509D01*
X156154405Y-115033509D02*
X156106786Y-115128747D01*
X202779405Y-82219819D02*
X202779405Y-81219819D01*
X202779405Y-81219819D02*
X203017500Y-81219819D01*
X203017500Y-81219819D02*
X203160357Y-81267438D01*
X203160357Y-81267438D02*
X203255595Y-81362676D01*
X203255595Y-81362676D02*
X203303214Y-81457914D01*
X203303214Y-81457914D02*
X203350833Y-81648390D01*
X203350833Y-81648390D02*
X203350833Y-81791247D01*
X203350833Y-81791247D02*
X203303214Y-81981723D01*
X203303214Y-81981723D02*
X203255595Y-82076961D01*
X203255595Y-82076961D02*
X203160357Y-82172200D01*
X203160357Y-82172200D02*
X203017500Y-82219819D01*
X203017500Y-82219819D02*
X202779405Y-82219819D01*
X203684167Y-81219819D02*
X204303214Y-81219819D01*
X204303214Y-81219819D02*
X203969881Y-81600771D01*
X203969881Y-81600771D02*
X204112738Y-81600771D01*
X204112738Y-81600771D02*
X204207976Y-81648390D01*
X204207976Y-81648390D02*
X204255595Y-81696009D01*
X204255595Y-81696009D02*
X204303214Y-81791247D01*
X204303214Y-81791247D02*
X204303214Y-82029342D01*
X204303214Y-82029342D02*
X204255595Y-82124580D01*
X204255595Y-82124580D02*
X204207976Y-82172200D01*
X204207976Y-82172200D02*
X204112738Y-82219819D01*
X204112738Y-82219819D02*
X203827024Y-82219819D01*
X203827024Y-82219819D02*
X203731786Y-82172200D01*
X203731786Y-82172200D02*
X203684167Y-82124580D01*
X157472142Y-59997319D02*
X157138809Y-59521128D01*
X156900714Y-59997319D02*
X156900714Y-58997319D01*
X156900714Y-58997319D02*
X157281666Y-58997319D01*
X157281666Y-58997319D02*
X157376904Y-59044938D01*
X157376904Y-59044938D02*
X157424523Y-59092557D01*
X157424523Y-59092557D02*
X157472142Y-59187795D01*
X157472142Y-59187795D02*
X157472142Y-59330652D01*
X157472142Y-59330652D02*
X157424523Y-59425890D01*
X157424523Y-59425890D02*
X157376904Y-59473509D01*
X157376904Y-59473509D02*
X157281666Y-59521128D01*
X157281666Y-59521128D02*
X156900714Y-59521128D01*
X158424523Y-59997319D02*
X157853095Y-59997319D01*
X158138809Y-59997319D02*
X158138809Y-58997319D01*
X158138809Y-58997319D02*
X158043571Y-59140176D01*
X158043571Y-59140176D02*
X157948333Y-59235414D01*
X157948333Y-59235414D02*
X157853095Y-59283033D01*
X158805476Y-59092557D02*
X158853095Y-59044938D01*
X158853095Y-59044938D02*
X158948333Y-58997319D01*
X158948333Y-58997319D02*
X159186428Y-58997319D01*
X159186428Y-58997319D02*
X159281666Y-59044938D01*
X159281666Y-59044938D02*
X159329285Y-59092557D01*
X159329285Y-59092557D02*
X159376904Y-59187795D01*
X159376904Y-59187795D02*
X159376904Y-59283033D01*
X159376904Y-59283033D02*
X159329285Y-59425890D01*
X159329285Y-59425890D02*
X158757857Y-59997319D01*
X158757857Y-59997319D02*
X159376904Y-59997319D01*
X143660833Y-112362319D02*
X143327500Y-111886128D01*
X143089405Y-112362319D02*
X143089405Y-111362319D01*
X143089405Y-111362319D02*
X143470357Y-111362319D01*
X143470357Y-111362319D02*
X143565595Y-111409938D01*
X143565595Y-111409938D02*
X143613214Y-111457557D01*
X143613214Y-111457557D02*
X143660833Y-111552795D01*
X143660833Y-111552795D02*
X143660833Y-111695652D01*
X143660833Y-111695652D02*
X143613214Y-111790890D01*
X143613214Y-111790890D02*
X143565595Y-111838509D01*
X143565595Y-111838509D02*
X143470357Y-111886128D01*
X143470357Y-111886128D02*
X143089405Y-111886128D01*
X144137024Y-112362319D02*
X144327500Y-112362319D01*
X144327500Y-112362319D02*
X144422738Y-112314700D01*
X144422738Y-112314700D02*
X144470357Y-112267080D01*
X144470357Y-112267080D02*
X144565595Y-112124223D01*
X144565595Y-112124223D02*
X144613214Y-111933747D01*
X144613214Y-111933747D02*
X144613214Y-111552795D01*
X144613214Y-111552795D02*
X144565595Y-111457557D01*
X144565595Y-111457557D02*
X144517976Y-111409938D01*
X144517976Y-111409938D02*
X144422738Y-111362319D01*
X144422738Y-111362319D02*
X144232262Y-111362319D01*
X144232262Y-111362319D02*
X144137024Y-111409938D01*
X144137024Y-111409938D02*
X144089405Y-111457557D01*
X144089405Y-111457557D02*
X144041786Y-111552795D01*
X144041786Y-111552795D02*
X144041786Y-111790890D01*
X144041786Y-111790890D02*
X144089405Y-111886128D01*
X144089405Y-111886128D02*
X144137024Y-111933747D01*
X144137024Y-111933747D02*
X144232262Y-111981366D01*
X144232262Y-111981366D02*
X144422738Y-111981366D01*
X144422738Y-111981366D02*
X144517976Y-111933747D01*
X144517976Y-111933747D02*
X144565595Y-111886128D01*
X144565595Y-111886128D02*
X144613214Y-111790890D01*
X177836845Y-67133569D02*
X177836845Y-67943092D01*
X177836845Y-67943092D02*
X177884464Y-68038330D01*
X177884464Y-68038330D02*
X177932083Y-68085950D01*
X177932083Y-68085950D02*
X178027321Y-68133569D01*
X178027321Y-68133569D02*
X178217797Y-68133569D01*
X178217797Y-68133569D02*
X178313035Y-68085950D01*
X178313035Y-68085950D02*
X178360654Y-68038330D01*
X178360654Y-68038330D02*
X178408273Y-67943092D01*
X178408273Y-67943092D02*
X178408273Y-67133569D01*
X179408273Y-68133569D02*
X178836845Y-68133569D01*
X179122559Y-68133569D02*
X179122559Y-67133569D01*
X179122559Y-67133569D02*
X179027321Y-67276426D01*
X179027321Y-67276426D02*
X178932083Y-67371664D01*
X178932083Y-67371664D02*
X178836845Y-67419283D01*
X138485655Y-98888569D02*
X138485655Y-97888569D01*
X138485655Y-97888569D02*
X138723750Y-97888569D01*
X138723750Y-97888569D02*
X138866607Y-97936188D01*
X138866607Y-97936188D02*
X138961845Y-98031426D01*
X138961845Y-98031426D02*
X139009464Y-98126664D01*
X139009464Y-98126664D02*
X139057083Y-98317140D01*
X139057083Y-98317140D02*
X139057083Y-98459997D01*
X139057083Y-98459997D02*
X139009464Y-98650473D01*
X139009464Y-98650473D02*
X138961845Y-98745711D01*
X138961845Y-98745711D02*
X138866607Y-98840950D01*
X138866607Y-98840950D02*
X138723750Y-98888569D01*
X138723750Y-98888569D02*
X138485655Y-98888569D01*
X139390417Y-97888569D02*
X140057083Y-97888569D01*
X140057083Y-97888569D02*
X139628512Y-98888569D01*
X137533155Y-79838569D02*
X137533155Y-78838569D01*
X137533155Y-78838569D02*
X137771250Y-78838569D01*
X137771250Y-78838569D02*
X137914107Y-78886188D01*
X137914107Y-78886188D02*
X138009345Y-78981426D01*
X138009345Y-78981426D02*
X138056964Y-79076664D01*
X138056964Y-79076664D02*
X138104583Y-79267140D01*
X138104583Y-79267140D02*
X138104583Y-79409997D01*
X138104583Y-79409997D02*
X138056964Y-79600473D01*
X138056964Y-79600473D02*
X138009345Y-79695711D01*
X138009345Y-79695711D02*
X137914107Y-79790950D01*
X137914107Y-79790950D02*
X137771250Y-79838569D01*
X137771250Y-79838569D02*
X137533155Y-79838569D01*
X138580774Y-79838569D02*
X138771250Y-79838569D01*
X138771250Y-79838569D02*
X138866488Y-79790950D01*
X138866488Y-79790950D02*
X138914107Y-79743330D01*
X138914107Y-79743330D02*
X139009345Y-79600473D01*
X139009345Y-79600473D02*
X139056964Y-79409997D01*
X139056964Y-79409997D02*
X139056964Y-79029045D01*
X139056964Y-79029045D02*
X139009345Y-78933807D01*
X139009345Y-78933807D02*
X138961726Y-78886188D01*
X138961726Y-78886188D02*
X138866488Y-78838569D01*
X138866488Y-78838569D02*
X138676012Y-78838569D01*
X138676012Y-78838569D02*
X138580774Y-78886188D01*
X138580774Y-78886188D02*
X138533155Y-78933807D01*
X138533155Y-78933807D02*
X138485536Y-79029045D01*
X138485536Y-79029045D02*
X138485536Y-79267140D01*
X138485536Y-79267140D02*
X138533155Y-79362378D01*
X138533155Y-79362378D02*
X138580774Y-79409997D01*
X138580774Y-79409997D02*
X138676012Y-79457616D01*
X138676012Y-79457616D02*
X138866488Y-79457616D01*
X138866488Y-79457616D02*
X138961726Y-79409997D01*
X138961726Y-79409997D02*
X139009345Y-79362378D01*
X139009345Y-79362378D02*
X139056964Y-79267140D01*
X174363155Y-51263569D02*
X174363155Y-50263569D01*
X174363155Y-50263569D02*
X174601250Y-50263569D01*
X174601250Y-50263569D02*
X174744107Y-50311188D01*
X174744107Y-50311188D02*
X174839345Y-50406426D01*
X174839345Y-50406426D02*
X174886964Y-50501664D01*
X174886964Y-50501664D02*
X174934583Y-50692140D01*
X174934583Y-50692140D02*
X174934583Y-50834997D01*
X174934583Y-50834997D02*
X174886964Y-51025473D01*
X174886964Y-51025473D02*
X174839345Y-51120711D01*
X174839345Y-51120711D02*
X174744107Y-51215950D01*
X174744107Y-51215950D02*
X174601250Y-51263569D01*
X174601250Y-51263569D02*
X174363155Y-51263569D01*
X175886964Y-51263569D02*
X175315536Y-51263569D01*
X175601250Y-51263569D02*
X175601250Y-50263569D01*
X175601250Y-50263569D02*
X175506012Y-50406426D01*
X175506012Y-50406426D02*
X175410774Y-50501664D01*
X175410774Y-50501664D02*
X175315536Y-50549283D01*
X174617083Y-93334819D02*
X174283750Y-92858628D01*
X174045655Y-93334819D02*
X174045655Y-92334819D01*
X174045655Y-92334819D02*
X174426607Y-92334819D01*
X174426607Y-92334819D02*
X174521845Y-92382438D01*
X174521845Y-92382438D02*
X174569464Y-92430057D01*
X174569464Y-92430057D02*
X174617083Y-92525295D01*
X174617083Y-92525295D02*
X174617083Y-92668152D01*
X174617083Y-92668152D02*
X174569464Y-92763390D01*
X174569464Y-92763390D02*
X174521845Y-92811009D01*
X174521845Y-92811009D02*
X174426607Y-92858628D01*
X174426607Y-92858628D02*
X174045655Y-92858628D01*
X174998036Y-92430057D02*
X175045655Y-92382438D01*
X175045655Y-92382438D02*
X175140893Y-92334819D01*
X175140893Y-92334819D02*
X175378988Y-92334819D01*
X175378988Y-92334819D02*
X175474226Y-92382438D01*
X175474226Y-92382438D02*
X175521845Y-92430057D01*
X175521845Y-92430057D02*
X175569464Y-92525295D01*
X175569464Y-92525295D02*
X175569464Y-92620533D01*
X175569464Y-92620533D02*
X175521845Y-92763390D01*
X175521845Y-92763390D02*
X174950417Y-93334819D01*
X174950417Y-93334819D02*
X175569464Y-93334819D01*
X186702083Y-93109580D02*
X186654464Y-93157200D01*
X186654464Y-93157200D02*
X186511607Y-93204819D01*
X186511607Y-93204819D02*
X186416369Y-93204819D01*
X186416369Y-93204819D02*
X186273512Y-93157200D01*
X186273512Y-93157200D02*
X186178274Y-93061961D01*
X186178274Y-93061961D02*
X186130655Y-92966723D01*
X186130655Y-92966723D02*
X186083036Y-92776247D01*
X186083036Y-92776247D02*
X186083036Y-92633390D01*
X186083036Y-92633390D02*
X186130655Y-92442914D01*
X186130655Y-92442914D02*
X186178274Y-92347676D01*
X186178274Y-92347676D02*
X186273512Y-92252438D01*
X186273512Y-92252438D02*
X186416369Y-92204819D01*
X186416369Y-92204819D02*
X186511607Y-92204819D01*
X186511607Y-92204819D02*
X186654464Y-92252438D01*
X186654464Y-92252438D02*
X186702083Y-92300057D01*
X187083036Y-92300057D02*
X187130655Y-92252438D01*
X187130655Y-92252438D02*
X187225893Y-92204819D01*
X187225893Y-92204819D02*
X187463988Y-92204819D01*
X187463988Y-92204819D02*
X187559226Y-92252438D01*
X187559226Y-92252438D02*
X187606845Y-92300057D01*
X187606845Y-92300057D02*
X187654464Y-92395295D01*
X187654464Y-92395295D02*
X187654464Y-92490533D01*
X187654464Y-92490533D02*
X187606845Y-92633390D01*
X187606845Y-92633390D02*
X187035417Y-93204819D01*
X187035417Y-93204819D02*
X187654464Y-93204819D01*
X187508511Y-80323569D02*
X187175178Y-79847378D01*
X186937083Y-80323569D02*
X186937083Y-79323569D01*
X186937083Y-79323569D02*
X187318035Y-79323569D01*
X187318035Y-79323569D02*
X187413273Y-79371188D01*
X187413273Y-79371188D02*
X187460892Y-79418807D01*
X187460892Y-79418807D02*
X187508511Y-79514045D01*
X187508511Y-79514045D02*
X187508511Y-79656902D01*
X187508511Y-79656902D02*
X187460892Y-79752140D01*
X187460892Y-79752140D02*
X187413273Y-79799759D01*
X187413273Y-79799759D02*
X187318035Y-79847378D01*
X187318035Y-79847378D02*
X186937083Y-79847378D01*
X187794226Y-79323569D02*
X188127559Y-80323569D01*
X188127559Y-80323569D02*
X188460892Y-79323569D01*
X189318035Y-80323569D02*
X188746607Y-80323569D01*
X189032321Y-80323569D02*
X189032321Y-79323569D01*
X189032321Y-79323569D02*
X188937083Y-79466426D01*
X188937083Y-79466426D02*
X188841845Y-79561664D01*
X188841845Y-79561664D02*
X188746607Y-79609283D01*
X140803392Y-79024819D02*
X140470059Y-78548628D01*
X140231964Y-79024819D02*
X140231964Y-78024819D01*
X140231964Y-78024819D02*
X140612916Y-78024819D01*
X140612916Y-78024819D02*
X140708154Y-78072438D01*
X140708154Y-78072438D02*
X140755773Y-78120057D01*
X140755773Y-78120057D02*
X140803392Y-78215295D01*
X140803392Y-78215295D02*
X140803392Y-78358152D01*
X140803392Y-78358152D02*
X140755773Y-78453390D01*
X140755773Y-78453390D02*
X140708154Y-78501009D01*
X140708154Y-78501009D02*
X140612916Y-78548628D01*
X140612916Y-78548628D02*
X140231964Y-78548628D01*
X141755773Y-79024819D02*
X141184345Y-79024819D01*
X141470059Y-79024819D02*
X141470059Y-78024819D01*
X141470059Y-78024819D02*
X141374821Y-78167676D01*
X141374821Y-78167676D02*
X141279583Y-78262914D01*
X141279583Y-78262914D02*
X141184345Y-78310533D01*
X142708154Y-79024819D02*
X142136726Y-79024819D01*
X142422440Y-79024819D02*
X142422440Y-78024819D01*
X142422440Y-78024819D02*
X142327202Y-78167676D01*
X142327202Y-78167676D02*
X142231964Y-78262914D01*
X142231964Y-78262914D02*
X142136726Y-78310533D01*
X156405595Y-76341069D02*
X156405595Y-77150592D01*
X156405595Y-77150592D02*
X156453214Y-77245830D01*
X156453214Y-77245830D02*
X156500833Y-77293450D01*
X156500833Y-77293450D02*
X156596071Y-77341069D01*
X156596071Y-77341069D02*
X156786547Y-77341069D01*
X156786547Y-77341069D02*
X156881785Y-77293450D01*
X156881785Y-77293450D02*
X156929404Y-77245830D01*
X156929404Y-77245830D02*
X156977023Y-77150592D01*
X156977023Y-77150592D02*
X156977023Y-76341069D01*
X157405595Y-76436307D02*
X157453214Y-76388688D01*
X157453214Y-76388688D02*
X157548452Y-76341069D01*
X157548452Y-76341069D02*
X157786547Y-76341069D01*
X157786547Y-76341069D02*
X157881785Y-76388688D01*
X157881785Y-76388688D02*
X157929404Y-76436307D01*
X157929404Y-76436307D02*
X157977023Y-76531545D01*
X157977023Y-76531545D02*
X157977023Y-76626783D01*
X157977023Y-76626783D02*
X157929404Y-76769640D01*
X157929404Y-76769640D02*
X157357976Y-77341069D01*
X157357976Y-77341069D02*
X157977023Y-77341069D01*
X128960655Y-82219819D02*
X128960655Y-81219819D01*
X128960655Y-81219819D02*
X129198750Y-81219819D01*
X129198750Y-81219819D02*
X129341607Y-81267438D01*
X129341607Y-81267438D02*
X129436845Y-81362676D01*
X129436845Y-81362676D02*
X129484464Y-81457914D01*
X129484464Y-81457914D02*
X129532083Y-81648390D01*
X129532083Y-81648390D02*
X129532083Y-81791247D01*
X129532083Y-81791247D02*
X129484464Y-81981723D01*
X129484464Y-81981723D02*
X129436845Y-82076961D01*
X129436845Y-82076961D02*
X129341607Y-82172200D01*
X129341607Y-82172200D02*
X129198750Y-82219819D01*
X129198750Y-82219819D02*
X128960655Y-82219819D01*
X130103512Y-81648390D02*
X130008274Y-81600771D01*
X130008274Y-81600771D02*
X129960655Y-81553152D01*
X129960655Y-81553152D02*
X129913036Y-81457914D01*
X129913036Y-81457914D02*
X129913036Y-81410295D01*
X129913036Y-81410295D02*
X129960655Y-81315057D01*
X129960655Y-81315057D02*
X130008274Y-81267438D01*
X130008274Y-81267438D02*
X130103512Y-81219819D01*
X130103512Y-81219819D02*
X130293988Y-81219819D01*
X130293988Y-81219819D02*
X130389226Y-81267438D01*
X130389226Y-81267438D02*
X130436845Y-81315057D01*
X130436845Y-81315057D02*
X130484464Y-81410295D01*
X130484464Y-81410295D02*
X130484464Y-81457914D01*
X130484464Y-81457914D02*
X130436845Y-81553152D01*
X130436845Y-81553152D02*
X130389226Y-81600771D01*
X130389226Y-81600771D02*
X130293988Y-81648390D01*
X130293988Y-81648390D02*
X130103512Y-81648390D01*
X130103512Y-81648390D02*
X130008274Y-81696009D01*
X130008274Y-81696009D02*
X129960655Y-81743628D01*
X129960655Y-81743628D02*
X129913036Y-81838866D01*
X129913036Y-81838866D02*
X129913036Y-82029342D01*
X129913036Y-82029342D02*
X129960655Y-82124580D01*
X129960655Y-82124580D02*
X130008274Y-82172200D01*
X130008274Y-82172200D02*
X130103512Y-82219819D01*
X130103512Y-82219819D02*
X130293988Y-82219819D01*
X130293988Y-82219819D02*
X130389226Y-82172200D01*
X130389226Y-82172200D02*
X130436845Y-82124580D01*
X130436845Y-82124580D02*
X130484464Y-82029342D01*
X130484464Y-82029342D02*
X130484464Y-81838866D01*
X130484464Y-81838866D02*
X130436845Y-81743628D01*
X130436845Y-81743628D02*
X130389226Y-81696009D01*
X130389226Y-81696009D02*
X130293988Y-81648390D01*
X175093333Y-64737319D02*
X174760000Y-64261128D01*
X174521905Y-64737319D02*
X174521905Y-63737319D01*
X174521905Y-63737319D02*
X174902857Y-63737319D01*
X174902857Y-63737319D02*
X174998095Y-63784938D01*
X174998095Y-63784938D02*
X175045714Y-63832557D01*
X175045714Y-63832557D02*
X175093333Y-63927795D01*
X175093333Y-63927795D02*
X175093333Y-64070652D01*
X175093333Y-64070652D02*
X175045714Y-64165890D01*
X175045714Y-64165890D02*
X174998095Y-64213509D01*
X174998095Y-64213509D02*
X174902857Y-64261128D01*
X174902857Y-64261128D02*
X174521905Y-64261128D01*
X175426667Y-63737319D02*
X176045714Y-63737319D01*
X176045714Y-63737319D02*
X175712381Y-64118271D01*
X175712381Y-64118271D02*
X175855238Y-64118271D01*
X175855238Y-64118271D02*
X175950476Y-64165890D01*
X175950476Y-64165890D02*
X175998095Y-64213509D01*
X175998095Y-64213509D02*
X176045714Y-64308747D01*
X176045714Y-64308747D02*
X176045714Y-64546842D01*
X176045714Y-64546842D02*
X175998095Y-64642080D01*
X175998095Y-64642080D02*
X175950476Y-64689700D01*
X175950476Y-64689700D02*
X175855238Y-64737319D01*
X175855238Y-64737319D02*
X175569524Y-64737319D01*
X175569524Y-64737319D02*
X175474286Y-64689700D01*
X175474286Y-64689700D02*
X175426667Y-64642080D01*
X157948333Y-114743569D02*
X157615000Y-114267378D01*
X157376905Y-114743569D02*
X157376905Y-113743569D01*
X157376905Y-113743569D02*
X157757857Y-113743569D01*
X157757857Y-113743569D02*
X157853095Y-113791188D01*
X157853095Y-113791188D02*
X157900714Y-113838807D01*
X157900714Y-113838807D02*
X157948333Y-113934045D01*
X157948333Y-113934045D02*
X157948333Y-114076902D01*
X157948333Y-114076902D02*
X157900714Y-114172140D01*
X157900714Y-114172140D02*
X157853095Y-114219759D01*
X157853095Y-114219759D02*
X157757857Y-114267378D01*
X157757857Y-114267378D02*
X157376905Y-114267378D01*
X158519762Y-114172140D02*
X158424524Y-114124521D01*
X158424524Y-114124521D02*
X158376905Y-114076902D01*
X158376905Y-114076902D02*
X158329286Y-113981664D01*
X158329286Y-113981664D02*
X158329286Y-113934045D01*
X158329286Y-113934045D02*
X158376905Y-113838807D01*
X158376905Y-113838807D02*
X158424524Y-113791188D01*
X158424524Y-113791188D02*
X158519762Y-113743569D01*
X158519762Y-113743569D02*
X158710238Y-113743569D01*
X158710238Y-113743569D02*
X158805476Y-113791188D01*
X158805476Y-113791188D02*
X158853095Y-113838807D01*
X158853095Y-113838807D02*
X158900714Y-113934045D01*
X158900714Y-113934045D02*
X158900714Y-113981664D01*
X158900714Y-113981664D02*
X158853095Y-114076902D01*
X158853095Y-114076902D02*
X158805476Y-114124521D01*
X158805476Y-114124521D02*
X158710238Y-114172140D01*
X158710238Y-114172140D02*
X158519762Y-114172140D01*
X158519762Y-114172140D02*
X158424524Y-114219759D01*
X158424524Y-114219759D02*
X158376905Y-114267378D01*
X158376905Y-114267378D02*
X158329286Y-114362616D01*
X158329286Y-114362616D02*
X158329286Y-114553092D01*
X158329286Y-114553092D02*
X158376905Y-114648330D01*
X158376905Y-114648330D02*
X158424524Y-114695950D01*
X158424524Y-114695950D02*
X158519762Y-114743569D01*
X158519762Y-114743569D02*
X158710238Y-114743569D01*
X158710238Y-114743569D02*
X158805476Y-114695950D01*
X158805476Y-114695950D02*
X158853095Y-114648330D01*
X158853095Y-114648330D02*
X158900714Y-114553092D01*
X158900714Y-114553092D02*
X158900714Y-114362616D01*
X158900714Y-114362616D02*
X158853095Y-114267378D01*
X158853095Y-114267378D02*
X158805476Y-114219759D01*
X158805476Y-114219759D02*
X158710238Y-114172140D01*
X191285833Y-79024819D02*
X190952500Y-78548628D01*
X190714405Y-79024819D02*
X190714405Y-78024819D01*
X190714405Y-78024819D02*
X191095357Y-78024819D01*
X191095357Y-78024819D02*
X191190595Y-78072438D01*
X191190595Y-78072438D02*
X191238214Y-78120057D01*
X191238214Y-78120057D02*
X191285833Y-78215295D01*
X191285833Y-78215295D02*
X191285833Y-78358152D01*
X191285833Y-78358152D02*
X191238214Y-78453390D01*
X191238214Y-78453390D02*
X191190595Y-78501009D01*
X191190595Y-78501009D02*
X191095357Y-78548628D01*
X191095357Y-78548628D02*
X190714405Y-78548628D01*
X192142976Y-78358152D02*
X192142976Y-79024819D01*
X191904881Y-77977200D02*
X191666786Y-78691485D01*
X191666786Y-78691485D02*
X192285833Y-78691485D01*
X174617083Y-83809819D02*
X174283750Y-83333628D01*
X174045655Y-83809819D02*
X174045655Y-82809819D01*
X174045655Y-82809819D02*
X174426607Y-82809819D01*
X174426607Y-82809819D02*
X174521845Y-82857438D01*
X174521845Y-82857438D02*
X174569464Y-82905057D01*
X174569464Y-82905057D02*
X174617083Y-83000295D01*
X174617083Y-83000295D02*
X174617083Y-83143152D01*
X174617083Y-83143152D02*
X174569464Y-83238390D01*
X174569464Y-83238390D02*
X174521845Y-83286009D01*
X174521845Y-83286009D02*
X174426607Y-83333628D01*
X174426607Y-83333628D02*
X174045655Y-83333628D01*
X175569464Y-83809819D02*
X174998036Y-83809819D01*
X175283750Y-83809819D02*
X175283750Y-82809819D01*
X175283750Y-82809819D02*
X175188512Y-82952676D01*
X175188512Y-82952676D02*
X175093274Y-83047914D01*
X175093274Y-83047914D02*
X174998036Y-83095533D01*
X193204405Y-65551069D02*
X193204405Y-64551069D01*
X193204405Y-64551069D02*
X193442500Y-64551069D01*
X193442500Y-64551069D02*
X193585357Y-64598688D01*
X193585357Y-64598688D02*
X193680595Y-64693926D01*
X193680595Y-64693926D02*
X193728214Y-64789164D01*
X193728214Y-64789164D02*
X193775833Y-64979640D01*
X193775833Y-64979640D02*
X193775833Y-65122497D01*
X193775833Y-65122497D02*
X193728214Y-65312973D01*
X193728214Y-65312973D02*
X193680595Y-65408211D01*
X193680595Y-65408211D02*
X193585357Y-65503450D01*
X193585357Y-65503450D02*
X193442500Y-65551069D01*
X193442500Y-65551069D02*
X193204405Y-65551069D01*
X194156786Y-64646307D02*
X194204405Y-64598688D01*
X194204405Y-64598688D02*
X194299643Y-64551069D01*
X194299643Y-64551069D02*
X194537738Y-64551069D01*
X194537738Y-64551069D02*
X194632976Y-64598688D01*
X194632976Y-64598688D02*
X194680595Y-64646307D01*
X194680595Y-64646307D02*
X194728214Y-64741545D01*
X194728214Y-64741545D02*
X194728214Y-64836783D01*
X194728214Y-64836783D02*
X194680595Y-64979640D01*
X194680595Y-64979640D02*
X194109167Y-65551069D01*
X194109167Y-65551069D02*
X194728214Y-65551069D01*
X172235833Y-114743569D02*
X171902500Y-114267378D01*
X171664405Y-114743569D02*
X171664405Y-113743569D01*
X171664405Y-113743569D02*
X172045357Y-113743569D01*
X172045357Y-113743569D02*
X172140595Y-113791188D01*
X172140595Y-113791188D02*
X172188214Y-113838807D01*
X172188214Y-113838807D02*
X172235833Y-113934045D01*
X172235833Y-113934045D02*
X172235833Y-114076902D01*
X172235833Y-114076902D02*
X172188214Y-114172140D01*
X172188214Y-114172140D02*
X172140595Y-114219759D01*
X172140595Y-114219759D02*
X172045357Y-114267378D01*
X172045357Y-114267378D02*
X171664405Y-114267378D01*
X172569167Y-113743569D02*
X173235833Y-113743569D01*
X173235833Y-113743569D02*
X172807262Y-114743569D01*
X154678214Y-51263569D02*
X154678214Y-50263569D01*
X154678214Y-50263569D02*
X154916309Y-50263569D01*
X154916309Y-50263569D02*
X155059166Y-50311188D01*
X155059166Y-50311188D02*
X155154404Y-50406426D01*
X155154404Y-50406426D02*
X155202023Y-50501664D01*
X155202023Y-50501664D02*
X155249642Y-50692140D01*
X155249642Y-50692140D02*
X155249642Y-50834997D01*
X155249642Y-50834997D02*
X155202023Y-51025473D01*
X155202023Y-51025473D02*
X155154404Y-51120711D01*
X155154404Y-51120711D02*
X155059166Y-51215950D01*
X155059166Y-51215950D02*
X154916309Y-51263569D01*
X154916309Y-51263569D02*
X154678214Y-51263569D01*
X156202023Y-51263569D02*
X155630595Y-51263569D01*
X155916309Y-51263569D02*
X155916309Y-50263569D01*
X155916309Y-50263569D02*
X155821071Y-50406426D01*
X155821071Y-50406426D02*
X155725833Y-50501664D01*
X155725833Y-50501664D02*
X155630595Y-50549283D01*
X156821071Y-50263569D02*
X156916309Y-50263569D01*
X156916309Y-50263569D02*
X157011547Y-50311188D01*
X157011547Y-50311188D02*
X157059166Y-50358807D01*
X157059166Y-50358807D02*
X157106785Y-50454045D01*
X157106785Y-50454045D02*
X157154404Y-50644521D01*
X157154404Y-50644521D02*
X157154404Y-50882616D01*
X157154404Y-50882616D02*
X157106785Y-51073092D01*
X157106785Y-51073092D02*
X157059166Y-51168330D01*
X157059166Y-51168330D02*
X157011547Y-51215950D01*
X157011547Y-51215950D02*
X156916309Y-51263569D01*
X156916309Y-51263569D02*
X156821071Y-51263569D01*
X156821071Y-51263569D02*
X156725833Y-51215950D01*
X156725833Y-51215950D02*
X156678214Y-51168330D01*
X156678214Y-51168330D02*
X156630595Y-51073092D01*
X156630595Y-51073092D02*
X156582976Y-50882616D01*
X156582976Y-50882616D02*
X156582976Y-50644521D01*
X156582976Y-50644521D02*
X156630595Y-50454045D01*
X156630595Y-50454045D02*
X156678214Y-50358807D01*
X156678214Y-50358807D02*
X156725833Y-50311188D01*
X156725833Y-50311188D02*
X156821071Y-50263569D01*
X166354166Y-87562319D02*
X166354166Y-88276604D01*
X166354166Y-88276604D02*
X166306547Y-88419461D01*
X166306547Y-88419461D02*
X166211309Y-88514700D01*
X166211309Y-88514700D02*
X166068452Y-88562319D01*
X166068452Y-88562319D02*
X165973214Y-88562319D01*
X167354166Y-88562319D02*
X166782738Y-88562319D01*
X167068452Y-88562319D02*
X167068452Y-87562319D01*
X167068452Y-87562319D02*
X166973214Y-87705176D01*
X166973214Y-87705176D02*
X166877976Y-87800414D01*
X166877976Y-87800414D02*
X166782738Y-87848033D01*
X181939583Y-99003330D02*
X181891964Y-99050950D01*
X181891964Y-99050950D02*
X181749107Y-99098569D01*
X181749107Y-99098569D02*
X181653869Y-99098569D01*
X181653869Y-99098569D02*
X181511012Y-99050950D01*
X181511012Y-99050950D02*
X181415774Y-98955711D01*
X181415774Y-98955711D02*
X181368155Y-98860473D01*
X181368155Y-98860473D02*
X181320536Y-98669997D01*
X181320536Y-98669997D02*
X181320536Y-98527140D01*
X181320536Y-98527140D02*
X181368155Y-98336664D01*
X181368155Y-98336664D02*
X181415774Y-98241426D01*
X181415774Y-98241426D02*
X181511012Y-98146188D01*
X181511012Y-98146188D02*
X181653869Y-98098569D01*
X181653869Y-98098569D02*
X181749107Y-98098569D01*
X181749107Y-98098569D02*
X181891964Y-98146188D01*
X181891964Y-98146188D02*
X181939583Y-98193807D01*
X182891964Y-99098569D02*
X182320536Y-99098569D01*
X182606250Y-99098569D02*
X182606250Y-98098569D01*
X182606250Y-98098569D02*
X182511012Y-98241426D01*
X182511012Y-98241426D02*
X182415774Y-98336664D01*
X182415774Y-98336664D02*
X182320536Y-98384283D01*
X133659642Y-95693569D02*
X133326309Y-95217378D01*
X133088214Y-95693569D02*
X133088214Y-94693569D01*
X133088214Y-94693569D02*
X133469166Y-94693569D01*
X133469166Y-94693569D02*
X133564404Y-94741188D01*
X133564404Y-94741188D02*
X133612023Y-94788807D01*
X133612023Y-94788807D02*
X133659642Y-94884045D01*
X133659642Y-94884045D02*
X133659642Y-95026902D01*
X133659642Y-95026902D02*
X133612023Y-95122140D01*
X133612023Y-95122140D02*
X133564404Y-95169759D01*
X133564404Y-95169759D02*
X133469166Y-95217378D01*
X133469166Y-95217378D02*
X133088214Y-95217378D01*
X134612023Y-95693569D02*
X134040595Y-95693569D01*
X134326309Y-95693569D02*
X134326309Y-94693569D01*
X134326309Y-94693569D02*
X134231071Y-94836426D01*
X134231071Y-94836426D02*
X134135833Y-94931664D01*
X134135833Y-94931664D02*
X134040595Y-94979283D01*
X135231071Y-94693569D02*
X135326309Y-94693569D01*
X135326309Y-94693569D02*
X135421547Y-94741188D01*
X135421547Y-94741188D02*
X135469166Y-94788807D01*
X135469166Y-94788807D02*
X135516785Y-94884045D01*
X135516785Y-94884045D02*
X135564404Y-95074521D01*
X135564404Y-95074521D02*
X135564404Y-95312616D01*
X135564404Y-95312616D02*
X135516785Y-95503092D01*
X135516785Y-95503092D02*
X135469166Y-95598330D01*
X135469166Y-95598330D02*
X135421547Y-95645950D01*
X135421547Y-95645950D02*
X135326309Y-95693569D01*
X135326309Y-95693569D02*
X135231071Y-95693569D01*
X135231071Y-95693569D02*
X135135833Y-95645950D01*
X135135833Y-95645950D02*
X135088214Y-95598330D01*
X135088214Y-95598330D02*
X135040595Y-95503092D01*
X135040595Y-95503092D02*
X134992976Y-95312616D01*
X134992976Y-95312616D02*
X134992976Y-95074521D01*
X134992976Y-95074521D02*
X135040595Y-94884045D01*
X135040595Y-94884045D02*
X135088214Y-94788807D01*
X135088214Y-94788807D02*
X135135833Y-94741188D01*
X135135833Y-94741188D02*
X135231071Y-94693569D01*
X193254405Y-98816069D02*
X193254405Y-97816069D01*
X193254405Y-97816069D02*
X193492500Y-97816069D01*
X193492500Y-97816069D02*
X193635357Y-97863688D01*
X193635357Y-97863688D02*
X193730595Y-97958926D01*
X193730595Y-97958926D02*
X193778214Y-98054164D01*
X193778214Y-98054164D02*
X193825833Y-98244640D01*
X193825833Y-98244640D02*
X193825833Y-98387497D01*
X193825833Y-98387497D02*
X193778214Y-98577973D01*
X193778214Y-98577973D02*
X193730595Y-98673211D01*
X193730595Y-98673211D02*
X193635357Y-98768450D01*
X193635357Y-98768450D02*
X193492500Y-98816069D01*
X193492500Y-98816069D02*
X193254405Y-98816069D01*
X194682976Y-98149402D02*
X194682976Y-98816069D01*
X194444881Y-97768450D02*
X194206786Y-98482735D01*
X194206786Y-98482735D02*
X194825833Y-98482735D01*
D11*
%TO.C,R6*%
X188182500Y-108167500D02*
X188182500Y-108497500D01*
X188182500Y-110907500D02*
X188182500Y-110577500D01*
X194722500Y-108167500D02*
X188182500Y-108167500D01*
X194722500Y-108497500D02*
X194722500Y-108167500D01*
X194722500Y-110577500D02*
X194722500Y-110907500D01*
X194722500Y-110907500D02*
X188182500Y-110907500D01*
%TO.C,D5*%
X172541250Y-117517500D02*
X172541250Y-120607500D01*
X172541250Y-117517670D02*
G75*
G02*
X178091250Y-119062500I2560000J-1544830D01*
G01*
X178091250Y-119062500D02*
G75*
G02*
X172541250Y-120607330I-2990000J0D01*
G01*
X177601250Y-119062500D02*
G75*
G02*
X172601250Y-119062500I-2500000J0D01*
G01*
X172601250Y-119062500D02*
G75*
G02*
X177601250Y-119062500I2500000J0D01*
G01*
%TO.C,R5*%
X197707500Y-91498750D02*
X197707500Y-91828750D01*
X197707500Y-94238750D02*
X197707500Y-93908750D01*
X204247500Y-91498750D02*
X197707500Y-91498750D01*
X204247500Y-91828750D02*
X204247500Y-91498750D01*
X204247500Y-93908750D02*
X204247500Y-94238750D01*
X204247500Y-94238750D02*
X197707500Y-94238750D01*
%TO.C,D6*%
X153332500Y-117517500D02*
X153332500Y-120607500D01*
X153332500Y-117517670D02*
G75*
G02*
X158882500Y-119062500I2560000J-1544830D01*
G01*
X158882500Y-119062500D02*
G75*
G02*
X153332500Y-120607330I-2990000J0D01*
G01*
X158392500Y-119062500D02*
G75*
G02*
X153392500Y-119062500I-2500000J0D01*
G01*
X153392500Y-119062500D02*
G75*
G02*
X158392500Y-119062500I2500000J0D01*
G01*
%TO.C,D3*%
X200957500Y-84180000D02*
X200957500Y-87270000D01*
X200957500Y-84180170D02*
G75*
G02*
X206507500Y-85725000I2560000J-1544830D01*
G01*
X206507500Y-85725000D02*
G75*
G02*
X200957500Y-87269830I-2990000J0D01*
G01*
X206017500Y-85725000D02*
G75*
G02*
X201017500Y-85725000I-2500000J0D01*
G01*
X201017500Y-85725000D02*
G75*
G02*
X206017500Y-85725000I2500000J0D01*
G01*
%TO.C,R12*%
X154845000Y-60542500D02*
X161385000Y-60542500D01*
X154845000Y-60872500D02*
X154845000Y-60542500D01*
X154845000Y-62952500D02*
X154845000Y-63282500D01*
X154845000Y-63282500D02*
X161385000Y-63282500D01*
X161385000Y-60542500D02*
X161385000Y-60872500D01*
X161385000Y-63282500D02*
X161385000Y-62952500D01*
%TO.C,R9*%
X140557500Y-108167500D02*
X140557500Y-108497500D01*
X140557500Y-110907500D02*
X140557500Y-110577500D01*
X147097500Y-108167500D02*
X140557500Y-108167500D01*
X147097500Y-108497500D02*
X147097500Y-108167500D01*
X147097500Y-110577500D02*
X147097500Y-110907500D01*
X147097500Y-110907500D02*
X140557500Y-110907500D01*
%TO.C,U1*%
X175948750Y-68678750D02*
X175948750Y-78958750D01*
X175948750Y-78958750D02*
X181248750Y-78958750D01*
X177598750Y-68678750D02*
X175948750Y-68678750D01*
X181248750Y-68678750D02*
X179598750Y-68678750D01*
X181248750Y-78958750D02*
X181248750Y-68678750D01*
X179598750Y-68678750D02*
G75*
G02*
X177598750Y-68678750I-1000000J0D01*
G01*
%TO.C,D7*%
X136663750Y-100848750D02*
X136663750Y-103938750D01*
X136663750Y-100848920D02*
G75*
G02*
X142213750Y-102393750I2560000J-1544830D01*
G01*
X142213750Y-102393750D02*
G75*
G02*
X136663750Y-103938580I-2990000J0D01*
G01*
X141723750Y-102393750D02*
G75*
G02*
X136723750Y-102393750I-2500000J0D01*
G01*
X136723750Y-102393750D02*
G75*
G02*
X141723750Y-102393750I2500000J0D01*
G01*
%TO.C,D9*%
X136663750Y-67511250D02*
X136663750Y-70601250D01*
X136663750Y-67511420D02*
G75*
G02*
X142213750Y-69056250I2560000J-1544830D01*
G01*
X142213750Y-69056250D02*
G75*
G02*
X136663750Y-70601080I-2990000J0D01*
G01*
X141723750Y-69056250D02*
G75*
G02*
X136723750Y-69056250I-2500000J0D01*
G01*
X136723750Y-69056250D02*
G75*
G02*
X141723750Y-69056250I2500000J0D01*
G01*
%TO.C,D1*%
X172541250Y-53223750D02*
X172541250Y-56313750D01*
X172541250Y-53223920D02*
G75*
G02*
X178091250Y-54768750I2560000J-1544830D01*
G01*
X178091250Y-54768750D02*
G75*
G02*
X172541250Y-56313580I-2990000J0D01*
G01*
X177601250Y-54768750D02*
G75*
G02*
X172601250Y-54768750I-2500000J0D01*
G01*
X172601250Y-54768750D02*
G75*
G02*
X177601250Y-54768750I2500000J0D01*
G01*
%TO.C,R2*%
X171513750Y-93880000D02*
X178053750Y-93880000D01*
X171513750Y-94210000D02*
X171513750Y-93880000D01*
X171513750Y-96290000D02*
X171513750Y-96620000D01*
X171513750Y-96620000D02*
X178053750Y-96620000D01*
X178053750Y-93880000D02*
X178053750Y-94210000D01*
X178053750Y-96620000D02*
X178053750Y-96290000D01*
%TO.C,C2*%
X184248750Y-93880000D02*
X189488750Y-93880000D01*
X184248750Y-96620000D02*
X184248750Y-93880000D01*
X189488750Y-93880000D02*
X189488750Y-96620000D01*
X189488750Y-96620000D02*
X184248750Y-96620000D01*
%TO.C,RV1*%
X183228750Y-81008750D02*
X192978750Y-81008750D01*
X183228750Y-90758750D02*
X183228750Y-81008750D01*
X192978750Y-81008750D02*
X192978750Y-90758750D01*
X192978750Y-90758750D02*
X183228750Y-90758750D01*
%TO.C,R11*%
X138176250Y-74830000D02*
X138176250Y-75160000D01*
X138176250Y-77570000D02*
X138176250Y-77240000D01*
X144716250Y-74830000D02*
X138176250Y-74830000D01*
X144716250Y-75160000D02*
X144716250Y-74830000D01*
X144716250Y-77240000D02*
X144716250Y-77570000D01*
X144716250Y-77570000D02*
X138176250Y-77570000D01*
%TO.C,U2*%
X154517500Y-77886250D02*
X154517500Y-98326250D01*
X154517500Y-98326250D02*
X159817500Y-98326250D01*
X156167500Y-77886250D02*
X154517500Y-77886250D01*
X159817500Y-77886250D02*
X158167500Y-77886250D01*
X159817500Y-98326250D02*
X159817500Y-77886250D01*
X158167500Y-77886250D02*
G75*
G02*
X156167500Y-77886250I-1000000J0D01*
G01*
%TO.C,D8*%
X127138750Y-84180000D02*
X127138750Y-87270000D01*
X127138750Y-84180170D02*
G75*
G02*
X132688750Y-85725000I2560000J-1544830D01*
G01*
X132688750Y-85725000D02*
G75*
G02*
X127138750Y-87269830I-2990000J0D01*
G01*
X132198750Y-85725000D02*
G75*
G02*
X127198750Y-85725000I-2500000J0D01*
G01*
X127198750Y-85725000D02*
G75*
G02*
X132198750Y-85725000I2500000J0D01*
G01*
%TO.C,R3*%
X171990000Y-60542500D02*
X171990000Y-60872500D01*
X171990000Y-63282500D02*
X171990000Y-62952500D01*
X178530000Y-60542500D02*
X171990000Y-60542500D01*
X178530000Y-60872500D02*
X178530000Y-60542500D01*
X178530000Y-62952500D02*
X178530000Y-63282500D01*
X178530000Y-63282500D02*
X171990000Y-63282500D01*
%TO.C,R8*%
X154845000Y-110548750D02*
X154845000Y-110878750D01*
X154845000Y-113288750D02*
X154845000Y-112958750D01*
X161385000Y-110548750D02*
X154845000Y-110548750D01*
X161385000Y-110878750D02*
X161385000Y-110548750D01*
X161385000Y-112958750D02*
X161385000Y-113288750D01*
X161385000Y-113288750D02*
X154845000Y-113288750D01*
%TO.C,R4*%
X188182500Y-74830000D02*
X188182500Y-75160000D01*
X188182500Y-77570000D02*
X188182500Y-77240000D01*
X194722500Y-74830000D02*
X188182500Y-74830000D01*
X194722500Y-75160000D02*
X194722500Y-74830000D01*
X194722500Y-77240000D02*
X194722500Y-77570000D01*
X194722500Y-77570000D02*
X188182500Y-77570000D01*
%TO.C,R1*%
X171513750Y-84355000D02*
X178053750Y-84355000D01*
X171513750Y-84685000D02*
X171513750Y-84355000D01*
X171513750Y-86765000D02*
X171513750Y-87095000D01*
X171513750Y-87095000D02*
X178053750Y-87095000D01*
X178053750Y-84355000D02*
X178053750Y-84685000D01*
X178053750Y-87095000D02*
X178053750Y-86765000D01*
%TO.C,D2*%
X191591250Y-67511250D02*
X191591250Y-70601250D01*
X191591250Y-67511420D02*
G75*
G02*
X197141250Y-69056250I2560000J-1544830D01*
G01*
X197141250Y-69056250D02*
G75*
G02*
X191591250Y-70601080I-2990000J0D01*
G01*
X196651250Y-69056250D02*
G75*
G02*
X191651250Y-69056250I-2500000J0D01*
G01*
X191651250Y-69056250D02*
G75*
G02*
X196651250Y-69056250I2500000J0D01*
G01*
%TO.C,R7*%
X169132500Y-110548750D02*
X169132500Y-110878750D01*
X169132500Y-113288750D02*
X169132500Y-112958750D01*
X175672500Y-110548750D02*
X169132500Y-110548750D01*
X175672500Y-110878750D02*
X175672500Y-110548750D01*
X175672500Y-112958750D02*
X175672500Y-113288750D01*
X175672500Y-113288750D02*
X169132500Y-113288750D01*
%TO.C,D10*%
X153332500Y-53223750D02*
X153332500Y-56313750D01*
X153332500Y-53223920D02*
G75*
G02*
X158882500Y-54768750I2560000J-1544830D01*
G01*
X158882500Y-54768750D02*
G75*
G02*
X153332500Y-56313580I-2990000J0D01*
G01*
X158392500Y-54768750D02*
G75*
G02*
X153392500Y-54768750I-2500000J0D01*
G01*
X153392500Y-54768750D02*
G75*
G02*
X158392500Y-54768750I2500000J0D01*
G01*
%TO.C,J1*%
X165307500Y-89107500D02*
X166687500Y-89107500D01*
X165307500Y-90487500D02*
X165307500Y-89107500D01*
X165307500Y-91757500D02*
X165307500Y-94407500D01*
X165307500Y-91757500D02*
X168067500Y-91757500D01*
X165307500Y-94407500D02*
X168067500Y-94407500D01*
X168067500Y-91757500D02*
X168067500Y-94407500D01*
%TO.C,C1*%
X179301475Y-100918750D02*
X179801475Y-100918750D01*
X179551475Y-100668750D02*
X179551475Y-101168750D01*
X182106250Y-99813750D02*
X182106250Y-104973750D01*
X182146250Y-99813750D02*
X182146250Y-104973750D01*
X182186250Y-99814750D02*
X182186250Y-104972750D01*
X182226250Y-99816750D02*
X182226250Y-104970750D01*
X182266250Y-99818750D02*
X182266250Y-104968750D01*
X182306250Y-99821750D02*
X182306250Y-104965750D01*
X182346250Y-99824750D02*
X182346250Y-101353750D01*
X182346250Y-103433750D02*
X182346250Y-104962750D01*
X182386250Y-99828750D02*
X182386250Y-101353750D01*
X182386250Y-103433750D02*
X182386250Y-104958750D01*
X182426250Y-99833750D02*
X182426250Y-101353750D01*
X182426250Y-103433750D02*
X182426250Y-104953750D01*
X182466250Y-99838750D02*
X182466250Y-101353750D01*
X182466250Y-103433750D02*
X182466250Y-104948750D01*
X182506250Y-99844750D02*
X182506250Y-101353750D01*
X182506250Y-103433750D02*
X182506250Y-104942750D01*
X182546250Y-99850750D02*
X182546250Y-101353750D01*
X182546250Y-103433750D02*
X182546250Y-104936750D01*
X182586250Y-99857750D02*
X182586250Y-101353750D01*
X182586250Y-103433750D02*
X182586250Y-104929750D01*
X182626250Y-99865750D02*
X182626250Y-101353750D01*
X182626250Y-103433750D02*
X182626250Y-104921750D01*
X182666250Y-99874750D02*
X182666250Y-101353750D01*
X182666250Y-103433750D02*
X182666250Y-104912750D01*
X182706250Y-99883750D02*
X182706250Y-101353750D01*
X182706250Y-103433750D02*
X182706250Y-104903750D01*
X182746250Y-99892750D02*
X182746250Y-101353750D01*
X182746250Y-103433750D02*
X182746250Y-104894750D01*
X182786250Y-99903750D02*
X182786250Y-101353750D01*
X182786250Y-103433750D02*
X182786250Y-104883750D01*
X182826250Y-99914750D02*
X182826250Y-101353750D01*
X182826250Y-103433750D02*
X182826250Y-104872750D01*
X182866250Y-99926750D02*
X182866250Y-101353750D01*
X182866250Y-103433750D02*
X182866250Y-104860750D01*
X182906250Y-99938750D02*
X182906250Y-101353750D01*
X182906250Y-103433750D02*
X182906250Y-104848750D01*
X182946250Y-99951750D02*
X182946250Y-101353750D01*
X182946250Y-103433750D02*
X182946250Y-104835750D01*
X182986250Y-99965750D02*
X182986250Y-101353750D01*
X182986250Y-103433750D02*
X182986250Y-104821750D01*
X183026250Y-99980750D02*
X183026250Y-101353750D01*
X183026250Y-103433750D02*
X183026250Y-104806750D01*
X183066250Y-99995750D02*
X183066250Y-101353750D01*
X183066250Y-103433750D02*
X183066250Y-104791750D01*
X183106250Y-100011750D02*
X183106250Y-101353750D01*
X183106250Y-103433750D02*
X183106250Y-104775750D01*
X183146250Y-100028750D02*
X183146250Y-101353750D01*
X183146250Y-103433750D02*
X183146250Y-104758750D01*
X183186250Y-100046750D02*
X183186250Y-101353750D01*
X183186250Y-103433750D02*
X183186250Y-104740750D01*
X183226250Y-100064750D02*
X183226250Y-101353750D01*
X183226250Y-103433750D02*
X183226250Y-104722750D01*
X183266250Y-100084750D02*
X183266250Y-101353750D01*
X183266250Y-103433750D02*
X183266250Y-104702750D01*
X183306250Y-100104750D02*
X183306250Y-101353750D01*
X183306250Y-103433750D02*
X183306250Y-104682750D01*
X183346250Y-100125750D02*
X183346250Y-101353750D01*
X183346250Y-103433750D02*
X183346250Y-104661750D01*
X183386250Y-100147750D02*
X183386250Y-101353750D01*
X183386250Y-103433750D02*
X183386250Y-104639750D01*
X183426250Y-100170750D02*
X183426250Y-101353750D01*
X183426250Y-103433750D02*
X183426250Y-104616750D01*
X183466250Y-100194750D02*
X183466250Y-101353750D01*
X183466250Y-103433750D02*
X183466250Y-104592750D01*
X183506250Y-100218750D02*
X183506250Y-101353750D01*
X183506250Y-103433750D02*
X183506250Y-104568750D01*
X183546250Y-100244750D02*
X183546250Y-101353750D01*
X183546250Y-103433750D02*
X183546250Y-104542750D01*
X183586250Y-100271750D02*
X183586250Y-101353750D01*
X183586250Y-103433750D02*
X183586250Y-104515750D01*
X183626250Y-100299750D02*
X183626250Y-101353750D01*
X183626250Y-103433750D02*
X183626250Y-104487750D01*
X183666250Y-100328750D02*
X183666250Y-101353750D01*
X183666250Y-103433750D02*
X183666250Y-104458750D01*
X183706250Y-100358750D02*
X183706250Y-101353750D01*
X183706250Y-103433750D02*
X183706250Y-104428750D01*
X183746250Y-100390750D02*
X183746250Y-101353750D01*
X183746250Y-103433750D02*
X183746250Y-104396750D01*
X183786250Y-100423750D02*
X183786250Y-101353750D01*
X183786250Y-103433750D02*
X183786250Y-104363750D01*
X183826250Y-100457750D02*
X183826250Y-101353750D01*
X183826250Y-103433750D02*
X183826250Y-104329750D01*
X183866250Y-100492750D02*
X183866250Y-101353750D01*
X183866250Y-103433750D02*
X183866250Y-104294750D01*
X183906250Y-100529750D02*
X183906250Y-101353750D01*
X183906250Y-103433750D02*
X183906250Y-104257750D01*
X183946250Y-100568750D02*
X183946250Y-101353750D01*
X183946250Y-103433750D02*
X183946250Y-104218750D01*
X183986250Y-100608750D02*
X183986250Y-101353750D01*
X183986250Y-103433750D02*
X183986250Y-104178750D01*
X184026250Y-100650750D02*
X184026250Y-101353750D01*
X184026250Y-103433750D02*
X184026250Y-104136750D01*
X184066250Y-100694750D02*
X184066250Y-101353750D01*
X184066250Y-103433750D02*
X184066250Y-104092750D01*
X184106250Y-100741750D02*
X184106250Y-101353750D01*
X184106250Y-103433750D02*
X184106250Y-104045750D01*
X184146250Y-100789750D02*
X184146250Y-101353750D01*
X184146250Y-103433750D02*
X184146250Y-103997750D01*
X184186250Y-100840750D02*
X184186250Y-101353750D01*
X184186250Y-103433750D02*
X184186250Y-103946750D01*
X184226250Y-100894750D02*
X184226250Y-101353750D01*
X184226250Y-103433750D02*
X184226250Y-103892750D01*
X184266250Y-100950750D02*
X184266250Y-101353750D01*
X184266250Y-103433750D02*
X184266250Y-103836750D01*
X184306250Y-101010750D02*
X184306250Y-101353750D01*
X184306250Y-103433750D02*
X184306250Y-103776750D01*
X184346250Y-101074750D02*
X184346250Y-101353750D01*
X184346250Y-103433750D02*
X184346250Y-103712750D01*
X184386250Y-101142750D02*
X184386250Y-101353750D01*
X184386250Y-103433750D02*
X184386250Y-103644750D01*
X184426250Y-101216750D02*
X184426250Y-103570750D01*
X184466250Y-101295750D02*
X184466250Y-103491750D01*
X184506250Y-101382750D02*
X184506250Y-103404750D01*
X184546250Y-101479750D02*
X184546250Y-103307750D01*
X184586250Y-101588750D02*
X184586250Y-103198750D01*
X184626250Y-101716750D02*
X184626250Y-103070750D01*
X184666250Y-101876750D02*
X184666250Y-102910750D01*
X184706250Y-102110750D02*
X184706250Y-102676750D01*
X184726250Y-102393750D02*
G75*
G02*
X179486250Y-102393750I-2620000J0D01*
G01*
X179486250Y-102393750D02*
G75*
G02*
X184726250Y-102393750I2620000J0D01*
G01*
%TO.C,R10*%
X131032500Y-91498750D02*
X131032500Y-91828750D01*
X131032500Y-94238750D02*
X131032500Y-93908750D01*
X137572500Y-91498750D02*
X131032500Y-91498750D01*
X137572500Y-91828750D02*
X137572500Y-91498750D01*
X137572500Y-93908750D02*
X137572500Y-94238750D01*
X137572500Y-94238750D02*
X131032500Y-94238750D01*
%TO.C,D4*%
X191432500Y-100848750D02*
X191432500Y-103938750D01*
X191432500Y-100848920D02*
G75*
G02*
X196982500Y-102393750I2560000J-1544830D01*
G01*
X196982500Y-102393750D02*
G75*
G02*
X191432500Y-103938580I-2990000J0D01*
G01*
X196492500Y-102393750D02*
G75*
G02*
X191492500Y-102393750I-2500000J0D01*
G01*
X191492500Y-102393750D02*
G75*
G02*
X196492500Y-102393750I2500000J0D01*
G01*
%TD*%
M02*
