%TF.GenerationSoftware,KiCad,Pcbnew,9.0.6*%
%TF.CreationDate,2025-11-23T21:02:07-05:00*%
%TF.ProjectId,ledcha,6c656463-6861-42e6-9b69-6361645f7063,rev?*%
%TF.SameCoordinates,Original*%
%TF.FileFunction,Copper,L2,Bot*%
%TF.FilePolarity,Positive*%
%FSLAX46Y46*%
G04 Gerber Fmt 4.6, Leading zero omitted, Abs format (unit mm)*
G04 Created by KiCad (PCBNEW 9.0.6) date 2025-11-23 21:02:07*
%MOMM*%
%LPD*%
G01*
G04 APERTURE LIST*
G04 Aperture macros list*
%AMRoundRect*
0 Rectangle with rounded corners*
0 $1 Rounding radius*
0 $2 $3 $4 $5 $6 $7 $8 $9 X,Y pos of 4 corners*
0 Add a 4 corners polygon primitive as box body*
4,1,4,$2,$3,$4,$5,$6,$7,$8,$9,$2,$3,0*
0 Add four circle primitives for the rounded corners*
1,1,$1+$1,$2,$3*
1,1,$1+$1,$4,$5*
1,1,$1+$1,$6,$7*
1,1,$1+$1,$8,$9*
0 Add four rect primitives between the rounded corners*
20,1,$1+$1,$2,$3,$4,$5,0*
20,1,$1+$1,$4,$5,$6,$7,0*
20,1,$1+$1,$6,$7,$8,$9,0*
20,1,$1+$1,$8,$9,$2,$3,0*%
G04 Aperture macros list end*
%TA.AperFunction,ComponentPad*%
%ADD10C,1.600000*%
%TD*%
%TA.AperFunction,ComponentPad*%
%ADD11R,1.800000X1.800000*%
%TD*%
%TA.AperFunction,ComponentPad*%
%ADD12C,1.800000*%
%TD*%
%TA.AperFunction,ComponentPad*%
%ADD13RoundRect,0.250000X-0.550000X-0.550000X0.550000X-0.550000X0.550000X0.550000X-0.550000X0.550000X0*%
%TD*%
%TA.AperFunction,ComponentPad*%
%ADD14C,1.440000*%
%TD*%
%TA.AperFunction,ComponentPad*%
%ADD15R,1.700000X1.700000*%
%TD*%
%TA.AperFunction,ComponentPad*%
%ADD16C,1.700000*%
%TD*%
%TA.AperFunction,Conductor*%
%ADD17C,0.200000*%
%TD*%
G04 APERTURE END LIST*
D10*
%TO.P,R6,1*%
%TO.N,Net-(D4-A)*%
X195262500Y-109537500D03*
%TO.P,R6,2*%
%TO.N,Net-(U2-Q3)*%
X187642500Y-109537500D03*
%TD*%
D11*
%TO.P,D5,1,K*%
%TO.N,Net-(D1-K)*%
X173831250Y-119062500D03*
D12*
%TO.P,D5,2,A*%
%TO.N,Net-(D5-A)*%
X176371250Y-119062500D03*
%TD*%
D10*
%TO.P,R5,1*%
%TO.N,Net-(D3-A)*%
X204787500Y-92868750D03*
%TO.P,R5,2*%
%TO.N,Net-(U2-Q2)*%
X197167500Y-92868750D03*
%TD*%
D11*
%TO.P,D6,1,K*%
%TO.N,Net-(D1-K)*%
X154622500Y-119062500D03*
D12*
%TO.P,D6,2,A*%
%TO.N,Net-(D6-A)*%
X157162500Y-119062500D03*
%TD*%
D11*
%TO.P,D3,1,K*%
%TO.N,Net-(D1-K)*%
X202247500Y-85725000D03*
D12*
%TO.P,D3,2,A*%
%TO.N,Net-(D3-A)*%
X204787500Y-85725000D03*
%TD*%
D10*
%TO.P,R12,1*%
%TO.N,Net-(D10-A)*%
X154305000Y-61912500D03*
%TO.P,R12,2*%
%TO.N,Net-(U2-Q9)*%
X161925000Y-61912500D03*
%TD*%
%TO.P,R9,1*%
%TO.N,Net-(D7-A)*%
X147637500Y-109537500D03*
%TO.P,R9,2*%
%TO.N,Net-(U2-Q6)*%
X140017500Y-109537500D03*
%TD*%
D13*
%TO.P,U1,1,GND*%
%TO.N,Net-(J1-Pin_1)*%
X174788750Y-70008750D03*
D10*
%TO.P,U1,2,TR*%
%TO.N,Net-(U1-THR)*%
X174788750Y-72548750D03*
%TO.P,U1,3,Q*%
%TO.N,Net-(U1-Q)*%
X174788750Y-75088750D03*
%TO.P,U1,4,R*%
%TO.N,Net-(J1-Pin_2)*%
X174788750Y-77628750D03*
%TO.P,U1,5,CV*%
%TO.N,Net-(U1-CV)*%
X182408750Y-77628750D03*
%TO.P,U1,6,THR*%
%TO.N,Net-(U1-THR)*%
X182408750Y-75088750D03*
%TO.P,U1,7,DIS*%
%TO.N,Net-(U1-DIS)*%
X182408750Y-72548750D03*
%TO.P,U1,8,VCC*%
%TO.N,Net-(J1-Pin_2)*%
X182408750Y-70008750D03*
%TD*%
D11*
%TO.P,D7,1,K*%
%TO.N,Net-(D1-K)*%
X137953750Y-102393750D03*
D12*
%TO.P,D7,2,A*%
%TO.N,Net-(D7-A)*%
X140493750Y-102393750D03*
%TD*%
D11*
%TO.P,D9,1,K*%
%TO.N,Net-(D1-K)*%
X137953750Y-69056250D03*
D12*
%TO.P,D9,2,A*%
%TO.N,Net-(D9-A)*%
X140493750Y-69056250D03*
%TD*%
D11*
%TO.P,D1,1,K*%
%TO.N,Net-(D1-K)*%
X173831250Y-54768750D03*
D12*
%TO.P,D1,2,A*%
%TO.N,Net-(D1-A)*%
X176371250Y-54768750D03*
%TD*%
D10*
%TO.P,R2,1*%
%TO.N,Net-(J1-Pin_1)*%
X170973750Y-95250000D03*
%TO.P,R2,2*%
%TO.N,Net-(D1-K)*%
X178593750Y-95250000D03*
%TD*%
%TO.P,C2,1*%
%TO.N,Net-(U1-THR)*%
X185618750Y-95250000D03*
%TO.P,C2,2*%
%TO.N,Net-(J1-Pin_1)*%
X188118750Y-95250000D03*
%TD*%
D14*
%TO.P,RV1,1,1*%
%TO.N,Net-(U1-DIS)*%
X188118750Y-88423750D03*
%TO.P,RV1,2,2*%
X190658750Y-85883750D03*
%TO.P,RV1,3,3*%
%TO.N,Net-(U1-THR)*%
X188118750Y-83343750D03*
%TD*%
D10*
%TO.P,R11,1*%
%TO.N,Net-(D9-A)*%
X145256250Y-76200000D03*
%TO.P,R11,2*%
%TO.N,Net-(U2-Q8)*%
X137636250Y-76200000D03*
%TD*%
D13*
%TO.P,U2,1,Q5*%
%TO.N,Net-(U2-Q5)*%
X153357500Y-79216250D03*
D10*
%TO.P,U2,2,Q1*%
%TO.N,Net-(U2-Q1)*%
X153357500Y-81756250D03*
%TO.P,U2,3,Q0*%
%TO.N,Net-(U2-Q0)*%
X153357500Y-84296250D03*
%TO.P,U2,4,Q2*%
%TO.N,Net-(U2-Q2)*%
X153357500Y-86836250D03*
%TO.P,U2,5,Q6*%
%TO.N,Net-(U2-Q6)*%
X153357500Y-89376250D03*
%TO.P,U2,6,Q7*%
%TO.N,Net-(U2-Q7)*%
X153357500Y-91916250D03*
%TO.P,U2,7,Q3*%
%TO.N,Net-(U2-Q3)*%
X153357500Y-94456250D03*
%TO.P,U2,8,VSS*%
%TO.N,Net-(J1-Pin_1)*%
X153357500Y-96996250D03*
%TO.P,U2,9,Q8*%
%TO.N,Net-(U2-Q8)*%
X160977500Y-96996250D03*
%TO.P,U2,10,Q4*%
%TO.N,Net-(U2-Q4)*%
X160977500Y-94456250D03*
%TO.P,U2,11,Q9*%
%TO.N,Net-(U2-Q9)*%
X160977500Y-91916250D03*
%TO.P,U2,12,Cout*%
%TO.N,unconnected-(U2-Cout-Pad12)*%
X160977500Y-89376250D03*
%TO.P,U2,13,CKEN*%
%TO.N,Net-(J1-Pin_1)*%
X160977500Y-86836250D03*
%TO.P,U2,14,CLK*%
%TO.N,Net-(U1-Q)*%
X160977500Y-84296250D03*
%TO.P,U2,15,Reset*%
%TO.N,Net-(J1-Pin_1)*%
X160977500Y-81756250D03*
%TO.P,U2,16,VDD*%
%TO.N,Net-(J1-Pin_2)*%
X160977500Y-79216250D03*
%TD*%
D11*
%TO.P,D8,1,K*%
%TO.N,Net-(D1-K)*%
X128428750Y-85725000D03*
D12*
%TO.P,D8,2,A*%
%TO.N,Net-(D8-A)*%
X130968750Y-85725000D03*
%TD*%
D10*
%TO.P,R3,1*%
%TO.N,Net-(D1-A)*%
X179070000Y-61912500D03*
%TO.P,R3,2*%
%TO.N,Net-(U2-Q0)*%
X171450000Y-61912500D03*
%TD*%
%TO.P,R8,1*%
%TO.N,Net-(D6-A)*%
X161925000Y-111918750D03*
%TO.P,R8,2*%
%TO.N,Net-(U2-Q5)*%
X154305000Y-111918750D03*
%TD*%
%TO.P,R4,1*%
%TO.N,Net-(D2-A)*%
X195262500Y-76200000D03*
%TO.P,R4,2*%
%TO.N,Net-(U2-Q1)*%
X187642500Y-76200000D03*
%TD*%
%TO.P,R1,1*%
%TO.N,Net-(J1-Pin_2)*%
X170973750Y-85725000D03*
%TO.P,R1,2*%
%TO.N,Net-(U1-DIS)*%
X178593750Y-85725000D03*
%TD*%
D11*
%TO.P,D2,1,K*%
%TO.N,Net-(D1-K)*%
X192881250Y-69056250D03*
D12*
%TO.P,D2,2,A*%
%TO.N,Net-(D2-A)*%
X195421250Y-69056250D03*
%TD*%
D10*
%TO.P,R7,1*%
%TO.N,Net-(D5-A)*%
X176212500Y-111918750D03*
%TO.P,R7,2*%
%TO.N,Net-(U2-Q4)*%
X168592500Y-111918750D03*
%TD*%
D11*
%TO.P,D10,1,K*%
%TO.N,Net-(D1-K)*%
X154622500Y-54768750D03*
D12*
%TO.P,D10,2,A*%
%TO.N,Net-(D10-A)*%
X157162500Y-54768750D03*
%TD*%
D15*
%TO.P,J1,1,Pin_1*%
%TO.N,Net-(J1-Pin_1)*%
X166687500Y-90487500D03*
D16*
%TO.P,J1,2,Pin_2*%
%TO.N,Net-(J1-Pin_2)*%
X166687500Y-93027500D03*
%TD*%
D13*
%TO.P,C1,1*%
%TO.N,Net-(U1-CV)*%
X180856250Y-102393750D03*
D10*
%TO.P,C1,2*%
%TO.N,Net-(J1-Pin_1)*%
X183356250Y-102393750D03*
%TD*%
%TO.P,R10,1*%
%TO.N,Net-(D8-A)*%
X138112500Y-92868750D03*
%TO.P,R10,2*%
%TO.N,Net-(U2-Q7)*%
X130492500Y-92868750D03*
%TD*%
D11*
%TO.P,D4,1,K*%
%TO.N,Net-(D1-K)*%
X192722500Y-102393750D03*
D12*
%TO.P,D4,2,A*%
%TO.N,Net-(D4-A)*%
X195262500Y-102393750D03*
%TD*%
D17*
%TO.N,Net-(J1-Pin_1)*%
X157162500Y-78581250D02*
X157162500Y-80962500D01*
X174788750Y-70008750D02*
X165735000Y-70008750D01*
X157956250Y-81756250D02*
X160977500Y-81756250D01*
X165735000Y-70008750D02*
X157162500Y-78581250D01*
X157162500Y-80962500D02*
X157956250Y-81756250D01*
%TO.N,Net-(U1-THR)*%
X188118750Y-83343750D02*
X185618750Y-85843750D01*
X185618750Y-85843750D02*
X185618750Y-95250000D01*
%TO.N,Net-(D1-K)*%
X185737500Y-102393750D02*
X178593750Y-95250000D01*
X185737500Y-102393750D02*
X185737500Y-107156250D01*
X185737500Y-107156250D02*
X173831250Y-119062500D01*
X192722500Y-102393750D02*
X185737500Y-102393750D01*
%TO.N,Net-(D8-A)*%
X128587500Y-88106250D02*
X128587500Y-92868750D01*
X133350000Y-92868750D02*
X138112500Y-92868750D01*
X130968750Y-95250000D02*
X133350000Y-92868750D01*
X128587500Y-92868750D02*
X130968750Y-95250000D01*
X130968750Y-85725000D02*
X128587500Y-88106250D01*
%TO.N,Net-(D10-A)*%
X154305000Y-61912500D02*
X154305000Y-57626250D01*
X154305000Y-57626250D02*
X157162500Y-54768750D01*
%TO.N,Net-(J1-Pin_2)*%
X161433550Y-83195250D02*
X160521450Y-83195250D01*
X160521450Y-83195250D02*
X159876500Y-83840200D01*
X160849200Y-85725000D02*
X170973750Y-85725000D01*
X159876500Y-83840200D02*
X159876500Y-84752300D01*
X162078500Y-82550300D02*
X161433550Y-83195250D01*
X159876500Y-84752300D02*
X160849200Y-85725000D01*
X160977500Y-79216250D02*
X162078500Y-80317250D01*
X170973750Y-88741250D02*
X166687500Y-93027500D01*
X162078500Y-80317250D02*
X162078500Y-82550300D01*
X170973750Y-85725000D02*
X170973750Y-88741250D01*
%TO.N,Net-(U1-Q)*%
X197643750Y-90487500D02*
X190500000Y-97631250D01*
X190500000Y-97631250D02*
X184437050Y-97631250D01*
X184437050Y-97631250D02*
X171102050Y-84296250D01*
X197643750Y-76200000D02*
X197643750Y-90487500D01*
X176058750Y-73818750D02*
X195262500Y-73818750D01*
X171102050Y-84296250D02*
X160977500Y-84296250D01*
X174788750Y-75088750D02*
X176058750Y-73818750D01*
X195262500Y-73818750D02*
X197643750Y-76200000D01*
%TO.N,Net-(U2-Q1)*%
X162159900Y-76200000D02*
X167250150Y-71109750D01*
X152256500Y-78431090D02*
X152256500Y-80655250D01*
X187642500Y-76200000D02*
X162159900Y-76200000D01*
X175889750Y-70793910D02*
X175889750Y-69223590D01*
X175889750Y-69223590D02*
X175573910Y-68907750D01*
X167250150Y-71109750D02*
X175573910Y-71109750D01*
X175573910Y-68907750D02*
X161779840Y-68907750D01*
X152256500Y-80655250D02*
X153357500Y-81756250D01*
X175573910Y-71109750D02*
X175889750Y-70793910D01*
X161779840Y-68907750D02*
X152256500Y-78431090D01*
%TO.N,Net-(U2-Q3)*%
X153421500Y-120263500D02*
X152400000Y-119242000D01*
X152256500Y-118919000D02*
X152256500Y-95557250D01*
X152400000Y-119242000D02*
X152400000Y-119062500D01*
X187642500Y-109537500D02*
X176916500Y-120263500D01*
X152400000Y-119062500D02*
X152256500Y-118919000D01*
X176916500Y-120263500D02*
X153421500Y-120263500D01*
X152256500Y-95557250D02*
X153357500Y-94456250D01*
%TO.N,Net-(U2-Q4)*%
X168592500Y-102071250D02*
X168592500Y-111918750D01*
X160977500Y-94456250D02*
X168592500Y-102071250D01*
%TO.N,Net-(U2-Q5)*%
X159866250Y-95240050D02*
X160521450Y-95895250D01*
X160521450Y-95895250D02*
X161433550Y-95895250D01*
X162078500Y-104145250D02*
X154305000Y-111918750D01*
X161433550Y-95895250D02*
X162078500Y-96540200D01*
X159866250Y-85725000D02*
X159866250Y-95240050D01*
X153357500Y-79216250D02*
X159866250Y-85725000D01*
X162078500Y-96540200D02*
X162078500Y-104145250D01*
%TO.N,Net-(U2-Q7)*%
X132244999Y-91116251D02*
X130492500Y-92868750D01*
X152557501Y-91116251D02*
X132244999Y-91116251D01*
X153357500Y-91916250D02*
X152557501Y-91116251D01*
%TO.N,Net-(U2-Q8)*%
X137636250Y-76200000D02*
X152151501Y-90715251D01*
X152151501Y-90715251D02*
X154696501Y-90715251D01*
X154696501Y-90715251D02*
X160977500Y-96996250D01*
%TD*%
M02*
