M48
; DRILL file {KiCad 9.0.6} date 2025-11-23T21:02:04-0500
; FORMAT={-:-/ absolute / metric / decimal}
; #@! TF.CreationDate,2025-11-23T21:02:04-05:00
; #@! TF.GenerationSoftware,Kicad,Pcbnew,9.0.6
; #@! TF.FileFunction,Plated,1,2,PTH
FMAT,2
METRIC
; #@! TA.AperFunction,Plated,PTH,ComponentDrill
T1C0.800
; #@! TA.AperFunction,Plated,PTH,ComponentDrill
T2C0.900
; #@! TA.AperFunction,Plated,PTH,ComponentDrill
T3C1.000
%
G90
G05
T1
X130.493Y-92.869
X137.636Y-76.2
X138.112Y-92.869
X140.017Y-109.537
X145.256Y-76.2
X147.637Y-109.537
X153.357Y-79.216
X153.357Y-81.756
X153.357Y-84.296
X153.357Y-86.836
X153.357Y-89.376
X153.357Y-91.916
X153.357Y-94.456
X153.357Y-96.996
X154.305Y-61.912
X154.305Y-111.919
X160.977Y-79.216
X160.977Y-81.756
X160.977Y-84.296
X160.977Y-86.836
X160.977Y-89.376
X160.977Y-91.916
X160.977Y-94.456
X160.977Y-96.996
X161.925Y-61.912
X161.925Y-111.919
X168.593Y-111.919
X170.974Y-85.725
X170.974Y-95.25
X171.45Y-61.912
X174.789Y-70.009
X174.789Y-72.549
X174.789Y-75.089
X174.789Y-77.629
X176.213Y-111.919
X178.594Y-85.725
X178.594Y-95.25
X179.07Y-61.912
X180.856Y-102.394
X182.409Y-70.009
X182.409Y-72.549
X182.409Y-75.089
X182.409Y-77.629
X183.356Y-102.394
X185.619Y-95.25
X187.642Y-76.2
X187.642Y-109.537
X188.119Y-83.344
X188.119Y-88.424
X188.119Y-95.25
X190.659Y-85.884
X195.262Y-76.2
X195.262Y-109.537
X197.167Y-92.869
X204.787Y-92.869
T2
X128.429Y-85.725
X130.969Y-85.725
X137.954Y-69.056
X137.954Y-102.394
X140.494Y-69.056
X140.494Y-102.394
X154.623Y-54.769
X154.623Y-119.062
X157.162Y-54.769
X157.162Y-119.062
X173.831Y-54.769
X173.831Y-119.062
X176.371Y-54.769
X176.371Y-119.062
X192.722Y-102.394
X192.881Y-69.056
X195.262Y-102.394
X195.421Y-69.056
X202.248Y-85.725
X204.787Y-85.725
T3
X166.688Y-90.487
X166.688Y-93.027
M30
