%TF.GenerationSoftware,KiCad,Pcbnew,9.0.6*%
%TF.CreationDate,2025-11-23T21:02:07-05:00*%
%TF.ProjectId,ledcha,6c656463-6861-42e6-9b69-6361645f7063,rev?*%
%TF.SameCoordinates,Original*%
%TF.FileFunction,Copper,L1,Top*%
%TF.FilePolarity,Positive*%
%FSLAX46Y46*%
G04 Gerber Fmt 4.6, Leading zero omitted, Abs format (unit mm)*
G04 Created by KiCad (PCBNEW 9.0.6) date 2025-11-23 21:02:07*
%MOMM*%
%LPD*%
G01*
G04 APERTURE LIST*
G04 Aperture macros list*
%AMRoundRect*
0 Rectangle with rounded corners*
0 $1 Rounding radius*
0 $2 $3 $4 $5 $6 $7 $8 $9 X,Y pos of 4 corners*
0 Add a 4 corners polygon primitive as box body*
4,1,4,$2,$3,$4,$5,$6,$7,$8,$9,$2,$3,0*
0 Add four circle primitives for the rounded corners*
1,1,$1+$1,$2,$3*
1,1,$1+$1,$4,$5*
1,1,$1+$1,$6,$7*
1,1,$1+$1,$8,$9*
0 Add four rect primitives between the rounded corners*
20,1,$1+$1,$2,$3,$4,$5,0*
20,1,$1+$1,$4,$5,$6,$7,0*
20,1,$1+$1,$6,$7,$8,$9,0*
20,1,$1+$1,$8,$9,$2,$3,0*%
G04 Aperture macros list end*
%TA.AperFunction,ComponentPad*%
%ADD10C,1.600000*%
%TD*%
%TA.AperFunction,ComponentPad*%
%ADD11R,1.800000X1.800000*%
%TD*%
%TA.AperFunction,ComponentPad*%
%ADD12C,1.800000*%
%TD*%
%TA.AperFunction,ComponentPad*%
%ADD13RoundRect,0.250000X-0.550000X-0.550000X0.550000X-0.550000X0.550000X0.550000X-0.550000X0.550000X0*%
%TD*%
%TA.AperFunction,ComponentPad*%
%ADD14C,1.440000*%
%TD*%
%TA.AperFunction,ComponentPad*%
%ADD15R,1.700000X1.700000*%
%TD*%
%TA.AperFunction,ComponentPad*%
%ADD16C,1.700000*%
%TD*%
%TA.AperFunction,Conductor*%
%ADD17C,0.200000*%
%TD*%
G04 APERTURE END LIST*
D10*
%TO.P,R6,1*%
%TO.N,Net-(D4-A)*%
X195262500Y-109537500D03*
%TO.P,R6,2*%
%TO.N,Net-(U2-Q3)*%
X187642500Y-109537500D03*
%TD*%
D11*
%TO.P,D5,1,K*%
%TO.N,Net-(D1-K)*%
X173831250Y-119062500D03*
D12*
%TO.P,D5,2,A*%
%TO.N,Net-(D5-A)*%
X176371250Y-119062500D03*
%TD*%
D10*
%TO.P,R5,1*%
%TO.N,Net-(D3-A)*%
X204787500Y-92868750D03*
%TO.P,R5,2*%
%TO.N,Net-(U2-Q2)*%
X197167500Y-92868750D03*
%TD*%
D11*
%TO.P,D6,1,K*%
%TO.N,Net-(D1-K)*%
X154622500Y-119062500D03*
D12*
%TO.P,D6,2,A*%
%TO.N,Net-(D6-A)*%
X157162500Y-119062500D03*
%TD*%
D11*
%TO.P,D3,1,K*%
%TO.N,Net-(D1-K)*%
X202247500Y-85725000D03*
D12*
%TO.P,D3,2,A*%
%TO.N,Net-(D3-A)*%
X204787500Y-85725000D03*
%TD*%
D10*
%TO.P,R12,1*%
%TO.N,Net-(D10-A)*%
X154305000Y-61912500D03*
%TO.P,R12,2*%
%TO.N,Net-(U2-Q9)*%
X161925000Y-61912500D03*
%TD*%
%TO.P,R9,1*%
%TO.N,Net-(D7-A)*%
X147637500Y-109537500D03*
%TO.P,R9,2*%
%TO.N,Net-(U2-Q6)*%
X140017500Y-109537500D03*
%TD*%
D13*
%TO.P,U1,1,GND*%
%TO.N,Net-(J1-Pin_1)*%
X174788750Y-70008750D03*
D10*
%TO.P,U1,2,TR*%
%TO.N,Net-(U1-THR)*%
X174788750Y-72548750D03*
%TO.P,U1,3,Q*%
%TO.N,Net-(U1-Q)*%
X174788750Y-75088750D03*
%TO.P,U1,4,R*%
%TO.N,Net-(J1-Pin_2)*%
X174788750Y-77628750D03*
%TO.P,U1,5,CV*%
%TO.N,Net-(U1-CV)*%
X182408750Y-77628750D03*
%TO.P,U1,6,THR*%
%TO.N,Net-(U1-THR)*%
X182408750Y-75088750D03*
%TO.P,U1,7,DIS*%
%TO.N,Net-(U1-DIS)*%
X182408750Y-72548750D03*
%TO.P,U1,8,VCC*%
%TO.N,Net-(J1-Pin_2)*%
X182408750Y-70008750D03*
%TD*%
D11*
%TO.P,D7,1,K*%
%TO.N,Net-(D1-K)*%
X137953750Y-102393750D03*
D12*
%TO.P,D7,2,A*%
%TO.N,Net-(D7-A)*%
X140493750Y-102393750D03*
%TD*%
D11*
%TO.P,D9,1,K*%
%TO.N,Net-(D1-K)*%
X137953750Y-69056250D03*
D12*
%TO.P,D9,2,A*%
%TO.N,Net-(D9-A)*%
X140493750Y-69056250D03*
%TD*%
D11*
%TO.P,D1,1,K*%
%TO.N,Net-(D1-K)*%
X173831250Y-54768750D03*
D12*
%TO.P,D1,2,A*%
%TO.N,Net-(D1-A)*%
X176371250Y-54768750D03*
%TD*%
D10*
%TO.P,R2,1*%
%TO.N,Net-(J1-Pin_1)*%
X170973750Y-95250000D03*
%TO.P,R2,2*%
%TO.N,Net-(D1-K)*%
X178593750Y-95250000D03*
%TD*%
%TO.P,C2,1*%
%TO.N,Net-(U1-THR)*%
X185618750Y-95250000D03*
%TO.P,C2,2*%
%TO.N,Net-(J1-Pin_1)*%
X188118750Y-95250000D03*
%TD*%
D14*
%TO.P,RV1,1,1*%
%TO.N,Net-(U1-DIS)*%
X188118750Y-88423750D03*
%TO.P,RV1,2,2*%
X190658750Y-85883750D03*
%TO.P,RV1,3,3*%
%TO.N,Net-(U1-THR)*%
X188118750Y-83343750D03*
%TD*%
D10*
%TO.P,R11,1*%
%TO.N,Net-(D9-A)*%
X145256250Y-76200000D03*
%TO.P,R11,2*%
%TO.N,Net-(U2-Q8)*%
X137636250Y-76200000D03*
%TD*%
D13*
%TO.P,U2,1,Q5*%
%TO.N,Net-(U2-Q5)*%
X153357500Y-79216250D03*
D10*
%TO.P,U2,2,Q1*%
%TO.N,Net-(U2-Q1)*%
X153357500Y-81756250D03*
%TO.P,U2,3,Q0*%
%TO.N,Net-(U2-Q0)*%
X153357500Y-84296250D03*
%TO.P,U2,4,Q2*%
%TO.N,Net-(U2-Q2)*%
X153357500Y-86836250D03*
%TO.P,U2,5,Q6*%
%TO.N,Net-(U2-Q6)*%
X153357500Y-89376250D03*
%TO.P,U2,6,Q7*%
%TO.N,Net-(U2-Q7)*%
X153357500Y-91916250D03*
%TO.P,U2,7,Q3*%
%TO.N,Net-(U2-Q3)*%
X153357500Y-94456250D03*
%TO.P,U2,8,VSS*%
%TO.N,Net-(J1-Pin_1)*%
X153357500Y-96996250D03*
%TO.P,U2,9,Q8*%
%TO.N,Net-(U2-Q8)*%
X160977500Y-96996250D03*
%TO.P,U2,10,Q4*%
%TO.N,Net-(U2-Q4)*%
X160977500Y-94456250D03*
%TO.P,U2,11,Q9*%
%TO.N,Net-(U2-Q9)*%
X160977500Y-91916250D03*
%TO.P,U2,12,Cout*%
%TO.N,unconnected-(U2-Cout-Pad12)*%
X160977500Y-89376250D03*
%TO.P,U2,13,CKEN*%
%TO.N,Net-(J1-Pin_1)*%
X160977500Y-86836250D03*
%TO.P,U2,14,CLK*%
%TO.N,Net-(U1-Q)*%
X160977500Y-84296250D03*
%TO.P,U2,15,Reset*%
%TO.N,Net-(J1-Pin_1)*%
X160977500Y-81756250D03*
%TO.P,U2,16,VDD*%
%TO.N,Net-(J1-Pin_2)*%
X160977500Y-79216250D03*
%TD*%
D11*
%TO.P,D8,1,K*%
%TO.N,Net-(D1-K)*%
X128428750Y-85725000D03*
D12*
%TO.P,D8,2,A*%
%TO.N,Net-(D8-A)*%
X130968750Y-85725000D03*
%TD*%
D10*
%TO.P,R3,1*%
%TO.N,Net-(D1-A)*%
X179070000Y-61912500D03*
%TO.P,R3,2*%
%TO.N,Net-(U2-Q0)*%
X171450000Y-61912500D03*
%TD*%
%TO.P,R8,1*%
%TO.N,Net-(D6-A)*%
X161925000Y-111918750D03*
%TO.P,R8,2*%
%TO.N,Net-(U2-Q5)*%
X154305000Y-111918750D03*
%TD*%
%TO.P,R4,1*%
%TO.N,Net-(D2-A)*%
X195262500Y-76200000D03*
%TO.P,R4,2*%
%TO.N,Net-(U2-Q1)*%
X187642500Y-76200000D03*
%TD*%
%TO.P,R1,1*%
%TO.N,Net-(J1-Pin_2)*%
X170973750Y-85725000D03*
%TO.P,R1,2*%
%TO.N,Net-(U1-DIS)*%
X178593750Y-85725000D03*
%TD*%
D11*
%TO.P,D2,1,K*%
%TO.N,Net-(D1-K)*%
X192881250Y-69056250D03*
D12*
%TO.P,D2,2,A*%
%TO.N,Net-(D2-A)*%
X195421250Y-69056250D03*
%TD*%
D10*
%TO.P,R7,1*%
%TO.N,Net-(D5-A)*%
X176212500Y-111918750D03*
%TO.P,R7,2*%
%TO.N,Net-(U2-Q4)*%
X168592500Y-111918750D03*
%TD*%
D11*
%TO.P,D10,1,K*%
%TO.N,Net-(D1-K)*%
X154622500Y-54768750D03*
D12*
%TO.P,D10,2,A*%
%TO.N,Net-(D10-A)*%
X157162500Y-54768750D03*
%TD*%
D15*
%TO.P,J1,1,Pin_1*%
%TO.N,Net-(J1-Pin_1)*%
X166687500Y-90487500D03*
D16*
%TO.P,J1,2,Pin_2*%
%TO.N,Net-(J1-Pin_2)*%
X166687500Y-93027500D03*
%TD*%
D13*
%TO.P,C1,1*%
%TO.N,Net-(U1-CV)*%
X180856250Y-102393750D03*
D10*
%TO.P,C1,2*%
%TO.N,Net-(J1-Pin_1)*%
X183356250Y-102393750D03*
%TD*%
%TO.P,R10,1*%
%TO.N,Net-(D8-A)*%
X138112500Y-92868750D03*
%TO.P,R10,2*%
%TO.N,Net-(U2-Q7)*%
X130492500Y-92868750D03*
%TD*%
D11*
%TO.P,D4,1,K*%
%TO.N,Net-(D1-K)*%
X192722500Y-102393750D03*
D12*
%TO.P,D4,2,A*%
%TO.N,Net-(D4-A)*%
X195262500Y-102393750D03*
%TD*%
D17*
%TO.N,Net-(U1-CV)*%
X182408750Y-79077663D02*
X182408750Y-77628750D01*
X184636500Y-93969750D02*
X198924000Y-93969750D01*
X192881250Y-80025163D02*
X188541663Y-84364750D01*
X200025000Y-85725000D02*
X192881250Y-78581250D01*
X180856250Y-97750000D02*
X184636500Y-93969750D01*
X200025000Y-92868750D02*
X200025000Y-85725000D01*
X180856250Y-102393750D02*
X180856250Y-97750000D01*
X187695837Y-84364750D02*
X182408750Y-79077663D01*
X188541663Y-84364750D02*
X187695837Y-84364750D01*
X192881250Y-78581250D02*
X192881250Y-80025163D01*
X198924000Y-93969750D02*
X200025000Y-92868750D01*
%TO.N,Net-(J1-Pin_1)*%
X170973750Y-95250000D02*
X180498750Y-104775000D01*
X164306250Y-90487500D02*
X166687500Y-90487500D01*
X156998500Y-93355250D02*
X153357500Y-96996250D01*
X163819750Y-93355250D02*
X156998500Y-93355250D01*
X160977500Y-86836250D02*
X159876500Y-85735250D01*
X166687500Y-95250000D02*
X164306250Y-92868750D01*
X183356250Y-104775000D02*
X183356250Y-102393750D01*
X164306250Y-90165000D02*
X160977500Y-86836250D01*
X159876500Y-82857250D02*
X160977500Y-81756250D01*
X164306250Y-92868750D02*
X163819750Y-93355250D01*
X180498750Y-104775000D02*
X183356250Y-104775000D01*
X164306250Y-90487500D02*
X164306250Y-90165000D01*
X170973750Y-95250000D02*
X166687500Y-95250000D01*
X183356250Y-100012500D02*
X188118750Y-95250000D01*
X159876500Y-85735250D02*
X159876500Y-82857250D01*
X164306250Y-92868750D02*
X164306250Y-90487500D01*
X183356250Y-102393750D02*
X183356250Y-100012500D01*
%TO.N,Net-(U1-THR)*%
X183509750Y-69552700D02*
X182864800Y-68907750D01*
X182408750Y-75088750D02*
X184628750Y-77308750D01*
X178429750Y-68907750D02*
X174788750Y-72548750D01*
X184628750Y-77308750D02*
X188118750Y-80798750D01*
X182408750Y-75088750D02*
X183509750Y-73987750D01*
X188118750Y-80798750D02*
X188118750Y-83343750D01*
X183509750Y-73987750D02*
X183509750Y-69552700D01*
X182864800Y-68907750D02*
X178429750Y-68907750D01*
%TO.N,Net-(D1-A)*%
X176371250Y-54768750D02*
X176371250Y-59213750D01*
X176371250Y-59213750D02*
X179070000Y-61912500D01*
%TO.N,Net-(D1-K)*%
X137953750Y-69056250D02*
X152241250Y-54768750D01*
X173831250Y-119062500D02*
X172630250Y-120263500D01*
X155823500Y-120263500D02*
X154622500Y-119062500D01*
X128428750Y-85725000D02*
X128428750Y-92868750D01*
X202247500Y-92868750D02*
X192722500Y-102393750D01*
X195918721Y-67855250D02*
X202247500Y-74184029D01*
X155823500Y-53567750D02*
X154622500Y-54768750D01*
X172630250Y-120263500D02*
X155823500Y-120263500D01*
X173831250Y-54768750D02*
X172630250Y-53567750D01*
X194082250Y-67855250D02*
X195918721Y-67855250D01*
X172630250Y-53567750D02*
X155823500Y-53567750D01*
X137953750Y-69056250D02*
X128428750Y-78581250D01*
X202247500Y-74184029D02*
X202247500Y-85725000D01*
X152241250Y-54768750D02*
X154622500Y-54768750D01*
X128428750Y-92868750D02*
X137953750Y-102393750D01*
X173831250Y-54768750D02*
X175032250Y-53567750D01*
X175032250Y-53567750D02*
X177392750Y-53567750D01*
X128428750Y-78581250D02*
X128428750Y-85725000D01*
X202247500Y-85725000D02*
X202247500Y-92868750D01*
X177392750Y-53567750D02*
X192881250Y-69056250D01*
X192881250Y-69056250D02*
X194082250Y-67855250D01*
%TO.N,Net-(D2-A)*%
X195421250Y-69056250D02*
X195421250Y-76041250D01*
X195421250Y-76041250D02*
X195262500Y-76200000D01*
%TO.N,Net-(D3-A)*%
X204787500Y-85725000D02*
X204787500Y-92868750D01*
%TO.N,Net-(D4-A)*%
X195262500Y-109537500D02*
X195262500Y-102393750D01*
%TO.N,Net-(D5-A)*%
X176212500Y-118903750D02*
X176371250Y-119062500D01*
X176212500Y-111918750D02*
X176212500Y-118903750D01*
%TO.N,Net-(D6-A)*%
X157162500Y-119062500D02*
X161925000Y-114300000D01*
X161925000Y-114300000D02*
X161925000Y-111918750D01*
%TO.N,Net-(D7-A)*%
X138916500Y-109993550D02*
X139561450Y-110638500D01*
X138916500Y-103971000D02*
X138916500Y-109993550D01*
X139561450Y-110638500D02*
X146536500Y-110638500D01*
X146536500Y-110638500D02*
X147637500Y-109537500D01*
X140493750Y-102393750D02*
X138916500Y-103971000D01*
%TO.N,Net-(D9-A)*%
X145256250Y-73818750D02*
X140493750Y-69056250D01*
X145256250Y-76200000D02*
X145256250Y-73818750D01*
%TO.N,Net-(J1-Pin_2)*%
X182408750Y-70008750D02*
X174788750Y-77628750D01*
X174788750Y-77628750D02*
X174788750Y-81910000D01*
X174788750Y-81910000D02*
X170973750Y-85725000D01*
%TO.N,Net-(U1-DIS)*%
X181292500Y-88423750D02*
X178593750Y-85725000D01*
X188118750Y-88423750D02*
X181292500Y-88423750D01*
X190658750Y-85883750D02*
X188118750Y-88423750D01*
X178593750Y-76363750D02*
X178593750Y-85725000D01*
X182408750Y-72548750D02*
X178593750Y-76363750D01*
%TO.N,Net-(U2-Q0)*%
X169068750Y-59531250D02*
X171450000Y-61912500D01*
X153357500Y-84296250D02*
X150018750Y-80957500D01*
X152400000Y-59531250D02*
X169068750Y-59531250D01*
X150018750Y-80957500D02*
X150018750Y-61912500D01*
X150018750Y-61912500D02*
X152400000Y-59531250D01*
%TO.N,Net-(U2-Q2)*%
X163026000Y-84524000D02*
X163026000Y-61456450D01*
X197167500Y-92868750D02*
X171370750Y-92868750D01*
X162381050Y-60811500D02*
X161468950Y-60811500D01*
X171370750Y-92868750D02*
X163026000Y-84524000D01*
X156761500Y-65518950D02*
X156761500Y-83432250D01*
X156761500Y-83432250D02*
X153357500Y-86836250D01*
X163026000Y-61456450D02*
X162381050Y-60811500D01*
X161468950Y-60811500D02*
X156761500Y-65518950D01*
%TO.N,Net-(U2-Q6)*%
X152256500Y-97298500D02*
X152256500Y-90477250D01*
X152256500Y-90477250D02*
X153357500Y-89376250D01*
X140017500Y-109537500D02*
X152256500Y-97298500D01*
%TO.N,Net-(U2-Q9)*%
X161925000Y-66675000D02*
X161925000Y-61912500D01*
X157162500Y-71437500D02*
X161925000Y-66675000D01*
X157162500Y-88101250D02*
X157162500Y-71437500D01*
X160977500Y-91916250D02*
X157162500Y-88101250D01*
%TD*%
M02*
